ISO-10303-21;
HEADER;
/* Generated by software containing ST-Developer
 * from STEP Tools, Inc. (www.steptools.com) 
 */
/* OPTION: using custom renumber hook */

FILE_DESCRIPTION(
/* description */ ('STEP AP242',
'CAx-IF Rec.Pracs.---Representation and Presentation of Product Manufa
cturing Information (PMI)---4.0---2014-10-13',
'CAx-IF Rec.Pracs.---3D Tessellated Geometry---0.4---2014-09-14','2;1'),

/* implementation_level */ '2;1');

FILE_NAME(
/* name */ '688939cbf7931346cbd3e8f6',
/* time_stamp */ '2025-07-29T21:14:52Z',
/* author */ (''),
/* organization */ (''),
/* preprocessor_version */ 'ST-DEVELOPER v20',
/* originating_system */ 'ONSHAPE BY PTC INC, 1.201',
/* authorisation */ '  ');

FILE_SCHEMA (('AP242_MANAGED_MODEL_BASED_3D_ENGINEERING_MIM_LF { 1 0 10303 442 1 1 4 }'));
ENDSEC;

DATA;
#10=SHAPE_REPRESENTATION_RELATIONSHIP('','',#1085,#11);
#11=ADVANCED_BREP_SHAPE_REPRESENTATION('',(#1083),#1683);
#12=CIRCLE('',#1107,0.0015);
#13=CIRCLE('',#1108,0.0015);
#14=CIRCLE('',#1118,0.0015);
#15=CIRCLE('',#1119,0.0015);
#16=CYLINDRICAL_SURFACE('',#1106,0.0015);
#17=CYLINDRICAL_SURFACE('',#1117,0.0015);
#18=ORIENTED_EDGE('',*,*,#314,.F.);
#19=ORIENTED_EDGE('',*,*,#315,.T.);
#20=ORIENTED_EDGE('',*,*,#316,.T.);
#21=ORIENTED_EDGE('',*,*,#317,.F.);
#22=ORIENTED_EDGE('',*,*,#318,.F.);
#23=ORIENTED_EDGE('',*,*,#319,.F.);
#24=ORIENTED_EDGE('',*,*,#320,.T.);
#25=ORIENTED_EDGE('',*,*,#321,.F.);
#26=ORIENTED_EDGE('',*,*,#322,.F.);
#27=ORIENTED_EDGE('',*,*,#323,.T.);
#28=ORIENTED_EDGE('',*,*,#324,.T.);
#29=ORIENTED_EDGE('',*,*,#325,.T.);
#30=ORIENTED_EDGE('',*,*,#326,.F.);
#31=ORIENTED_EDGE('',*,*,#327,.T.);
#32=ORIENTED_EDGE('',*,*,#328,.F.);
#33=ORIENTED_EDGE('',*,*,#329,.F.);
#34=ORIENTED_EDGE('',*,*,#330,.F.);
#35=ORIENTED_EDGE('',*,*,#331,.T.);
#36=ORIENTED_EDGE('',*,*,#332,.T.);
#37=ORIENTED_EDGE('',*,*,#333,.F.);
#38=ORIENTED_EDGE('',*,*,#334,.F.);
#39=ORIENTED_EDGE('',*,*,#335,.T.);
#40=ORIENTED_EDGE('',*,*,#336,.T.);
#41=ORIENTED_EDGE('',*,*,#337,.F.);
#42=ORIENTED_EDGE('',*,*,#338,.F.);
#43=ORIENTED_EDGE('',*,*,#339,.F.);
#44=ORIENTED_EDGE('',*,*,#340,.T.);
#45=ORIENTED_EDGE('',*,*,#341,.T.);
#46=ORIENTED_EDGE('',*,*,#342,.F.);
#47=ORIENTED_EDGE('',*,*,#343,.T.);
#48=ORIENTED_EDGE('',*,*,#344,.T.);
#49=ORIENTED_EDGE('',*,*,#345,.F.);
#50=ORIENTED_EDGE('',*,*,#346,.F.);
#51=ORIENTED_EDGE('',*,*,#347,.T.);
#52=ORIENTED_EDGE('',*,*,#348,.T.);
#53=ORIENTED_EDGE('',*,*,#349,.F.);
#54=ORIENTED_EDGE('',*,*,#350,.F.);
#55=ORIENTED_EDGE('',*,*,#351,.T.);
#56=ORIENTED_EDGE('',*,*,#352,.T.);
#57=ORIENTED_EDGE('',*,*,#353,.F.);
#58=ORIENTED_EDGE('',*,*,#354,.F.);
#59=ORIENTED_EDGE('',*,*,#355,.T.);
#60=ORIENTED_EDGE('',*,*,#356,.T.);
#61=ORIENTED_EDGE('',*,*,#357,.F.);
#62=ORIENTED_EDGE('',*,*,#358,.F.);
#63=ORIENTED_EDGE('',*,*,#359,.T.);
#64=ORIENTED_EDGE('',*,*,#360,.T.);
#65=ORIENTED_EDGE('',*,*,#361,.F.);
#66=ORIENTED_EDGE('',*,*,#362,.F.);
#67=ORIENTED_EDGE('',*,*,#363,.T.);
#68=ORIENTED_EDGE('',*,*,#364,.T.);
#69=ORIENTED_EDGE('',*,*,#365,.F.);
#70=ORIENTED_EDGE('',*,*,#327,.F.);
#71=ORIENTED_EDGE('',*,*,#366,.T.);
#72=ORIENTED_EDGE('',*,*,#367,.F.);
#73=ORIENTED_EDGE('',*,*,#368,.F.);
#74=ORIENTED_EDGE('',*,*,#323,.F.);
#75=ORIENTED_EDGE('',*,*,#369,.T.);
#76=ORIENTED_EDGE('',*,*,#370,.T.);
#77=ORIENTED_EDGE('',*,*,#371,.F.);
#78=ORIENTED_EDGE('',*,*,#372,.T.);
#79=ORIENTED_EDGE('',*,*,#373,.T.);
#80=ORIENTED_EDGE('',*,*,#374,.T.);
#81=ORIENTED_EDGE('',*,*,#375,.T.);
#82=ORIENTED_EDGE('',*,*,#376,.F.);
#83=ORIENTED_EDGE('',*,*,#377,.T.);
#84=ORIENTED_EDGE('',*,*,#378,.T.);
#85=ORIENTED_EDGE('',*,*,#379,.F.);
#86=ORIENTED_EDGE('',*,*,#380,.F.);
#87=ORIENTED_EDGE('',*,*,#381,.T.);
#88=ORIENTED_EDGE('',*,*,#382,.T.);
#89=ORIENTED_EDGE('',*,*,#383,.F.);
#90=ORIENTED_EDGE('',*,*,#384,.F.);
#91=ORIENTED_EDGE('',*,*,#385,.T.);
#92=ORIENTED_EDGE('',*,*,#386,.T.);
#93=ORIENTED_EDGE('',*,*,#387,.F.);
#94=ORIENTED_EDGE('',*,*,#388,.F.);
#95=ORIENTED_EDGE('',*,*,#389,.F.);
#96=ORIENTED_EDGE('',*,*,#390,.T.);
#97=ORIENTED_EDGE('',*,*,#391,.F.);
#98=ORIENTED_EDGE('',*,*,#392,.F.);
#99=ORIENTED_EDGE('',*,*,#321,.T.);
#100=ORIENTED_EDGE('',*,*,#393,.T.);
#101=ORIENTED_EDGE('',*,*,#394,.T.);
#102=ORIENTED_EDGE('',*,*,#395,.F.);
#103=ORIENTED_EDGE('',*,*,#329,.T.);
#104=ORIENTED_EDGE('',*,*,#396,.F.);
#105=ORIENTED_EDGE('',*,*,#397,.F.);
#106=ORIENTED_EDGE('',*,*,#374,.F.);
#107=ORIENTED_EDGE('',*,*,#398,.T.);
#108=ORIENTED_EDGE('',*,*,#399,.F.);
#109=ORIENTED_EDGE('',*,*,#400,.F.);
#110=ORIENTED_EDGE('',*,*,#370,.F.);
#111=ORIENTED_EDGE('',*,*,#401,.T.);
#112=ORIENTED_EDGE('',*,*,#391,.T.);
#113=ORIENTED_EDGE('',*,*,#402,.F.);
#114=ORIENTED_EDGE('',*,*,#403,.T.);
#115=ORIENTED_EDGE('',*,*,#404,.T.);
#116=ORIENTED_EDGE('',*,*,#397,.T.);
#117=ORIENTED_EDGE('',*,*,#405,.T.);
#118=ORIENTED_EDGE('',*,*,#406,.T.);
#119=ORIENTED_EDGE('',*,*,#407,.F.);
#120=ORIENTED_EDGE('',*,*,#408,.F.);
#121=ORIENTED_EDGE('',*,*,#339,.T.);
#122=ORIENTED_EDGE('',*,*,#409,.T.);
#123=ORIENTED_EDGE('',*,*,#410,.F.);
#124=ORIENTED_EDGE('',*,*,#411,.F.);
#125=ORIENTED_EDGE('',*,*,#407,.T.);
#126=ORIENTED_EDGE('',*,*,#412,.F.);
#127=ORIENTED_EDGE('',*,*,#341,.F.);
#128=ORIENTED_EDGE('',*,*,#413,.T.);
#129=ORIENTED_EDGE('',*,*,#410,.T.);
#130=ORIENTED_EDGE('',*,*,#338,.T.);
#131=ORIENTED_EDGE('',*,*,#412,.T.);
#132=ORIENTED_EDGE('',*,*,#409,.F.);
#133=ORIENTED_EDGE('',*,*,#406,.F.);
#134=ORIENTED_EDGE('',*,*,#369,.F.);
#135=ORIENTED_EDGE('',*,*,#322,.T.);
#136=ORIENTED_EDGE('',*,*,#392,.T.);
#137=ORIENTED_EDGE('',*,*,#401,.F.);
#138=ORIENTED_EDGE('',*,*,#340,.F.);
#139=ORIENTED_EDGE('',*,*,#408,.T.);
#140=ORIENTED_EDGE('',*,*,#411,.T.);
#141=ORIENTED_EDGE('',*,*,#413,.F.);
#142=ORIENTED_EDGE('',*,*,#375,.F.);
#143=ORIENTED_EDGE('',*,*,#405,.F.);
#144=ORIENTED_EDGE('',*,*,#396,.T.);
#145=ORIENTED_EDGE('',*,*,#328,.T.);
#146=ORIENTED_EDGE('',*,*,#414,.F.);
#147=ORIENTED_EDGE('',*,*,#394,.F.);
#148=ORIENTED_EDGE('',*,*,#415,.T.);
#149=ORIENTED_EDGE('',*,*,#416,.T.);
#150=ORIENTED_EDGE('',*,*,#417,.T.);
#151=ORIENTED_EDGE('',*,*,#418,.F.);
#152=ORIENTED_EDGE('',*,*,#419,.F.);
#153=ORIENTED_EDGE('',*,*,#319,.T.);
#154=ORIENTED_EDGE('',*,*,#420,.F.);
#155=ORIENTED_EDGE('',*,*,#325,.F.);
#156=ORIENTED_EDGE('',*,*,#421,.T.);
#157=ORIENTED_EDGE('',*,*,#418,.T.);
#158=ORIENTED_EDGE('',*,*,#422,.T.);
#159=ORIENTED_EDGE('',*,*,#423,.F.);
#160=ORIENTED_EDGE('',*,*,#424,.F.);
#161=ORIENTED_EDGE('',*,*,#367,.T.);
#162=ORIENTED_EDGE('',*,*,#425,.T.);
#163=ORIENTED_EDGE('',*,*,#372,.F.);
#164=ORIENTED_EDGE('',*,*,#426,.F.);
#165=ORIENTED_EDGE('',*,*,#423,.T.);
#166=ORIENTED_EDGE('',*,*,#427,.F.);
#167=ORIENTED_EDGE('',*,*,#428,.F.);
#168=ORIENTED_EDGE('',*,*,#429,.T.);
#169=ORIENTED_EDGE('',*,*,#399,.T.);
#170=ORIENTED_EDGE('',*,*,#430,.T.);
#171=ORIENTED_EDGE('',*,*,#403,.F.);
#172=ORIENTED_EDGE('',*,*,#431,.F.);
#173=ORIENTED_EDGE('',*,*,#428,.T.);
#174=ORIENTED_EDGE('',*,*,#432,.F.);
#175=ORIENTED_EDGE('',*,*,#416,.F.);
#176=ORIENTED_EDGE('',*,*,#433,.T.);
#177=ORIENTED_EDGE('',*,*,#389,.T.);
#178=ORIENTED_EDGE('',*,*,#434,.T.);
#179=ORIENTED_EDGE('',*,*,#435,.F.);
#180=ORIENTED_EDGE('',*,*,#415,.F.);
#181=ORIENTED_EDGE('',*,*,#393,.F.);
#182=ORIENTED_EDGE('',*,*,#320,.F.);
#183=ORIENTED_EDGE('',*,*,#419,.T.);
#184=ORIENTED_EDGE('',*,*,#421,.F.);
#185=ORIENTED_EDGE('',*,*,#324,.F.);
#186=ORIENTED_EDGE('',*,*,#368,.T.);
#187=ORIENTED_EDGE('',*,*,#424,.T.);
#188=ORIENTED_EDGE('',*,*,#426,.T.);
#189=ORIENTED_EDGE('',*,*,#371,.T.);
#190=ORIENTED_EDGE('',*,*,#400,.T.);
#191=ORIENTED_EDGE('',*,*,#429,.F.);
#192=ORIENTED_EDGE('',*,*,#431,.T.);
#193=ORIENTED_EDGE('',*,*,#402,.T.);
#194=ORIENTED_EDGE('',*,*,#390,.F.);
#195=ORIENTED_EDGE('',*,*,#433,.F.);
#196=ORIENTED_EDGE('',*,*,#434,.F.);
#197=ORIENTED_EDGE('',*,*,#414,.T.);
#198=ORIENTED_EDGE('',*,*,#432,.T.);
#199=ORIENTED_EDGE('',*,*,#388,.T.);
#200=ORIENTED_EDGE('',*,*,#404,.F.);
#201=ORIENTED_EDGE('',*,*,#430,.F.);
#202=ORIENTED_EDGE('',*,*,#427,.T.);
#203=ORIENTED_EDGE('',*,*,#398,.F.);
#204=ORIENTED_EDGE('',*,*,#373,.F.);
#205=ORIENTED_EDGE('',*,*,#425,.F.);
#206=ORIENTED_EDGE('',*,*,#422,.F.);
#207=ORIENTED_EDGE('',*,*,#366,.F.);
#208=ORIENTED_EDGE('',*,*,#326,.T.);
#209=ORIENTED_EDGE('',*,*,#420,.T.);
#210=ORIENTED_EDGE('',*,*,#417,.F.);
#211=ORIENTED_EDGE('',*,*,#318,.T.);
#212=ORIENTED_EDGE('',*,*,#395,.T.);
#213=ORIENTED_EDGE('',*,*,#435,.T.);
#214=ORIENTED_EDGE('',*,*,#436,.T.);
#215=ORIENTED_EDGE('',*,*,#386,.F.);
#216=ORIENTED_EDGE('',*,*,#437,.F.);
#217=ORIENTED_EDGE('',*,*,#365,.T.);
#218=ORIENTED_EDGE('',*,*,#438,.F.);
#219=ORIENTED_EDGE('',*,*,#363,.F.);
#220=ORIENTED_EDGE('',*,*,#439,.T.);
#221=ORIENTED_EDGE('',*,*,#384,.T.);
#222=ORIENTED_EDGE('',*,*,#437,.T.);
#223=ORIENTED_EDGE('',*,*,#385,.F.);
#224=ORIENTED_EDGE('',*,*,#439,.F.);
#225=ORIENTED_EDGE('',*,*,#362,.T.);
#226=ORIENTED_EDGE('',*,*,#436,.F.);
#227=ORIENTED_EDGE('',*,*,#364,.F.);
#228=ORIENTED_EDGE('',*,*,#438,.T.);
#229=ORIENTED_EDGE('',*,*,#387,.T.);
#230=ORIENTED_EDGE('',*,*,#440,.T.);
#231=ORIENTED_EDGE('',*,*,#382,.F.);
#232=ORIENTED_EDGE('',*,*,#441,.F.);
#233=ORIENTED_EDGE('',*,*,#361,.T.);
#234=ORIENTED_EDGE('',*,*,#442,.F.);
#235=ORIENTED_EDGE('',*,*,#359,.F.);
#236=ORIENTED_EDGE('',*,*,#443,.T.);
#237=ORIENTED_EDGE('',*,*,#380,.T.);
#238=ORIENTED_EDGE('',*,*,#444,.T.);
#239=ORIENTED_EDGE('',*,*,#445,.F.);
#240=ORIENTED_EDGE('',*,*,#358,.T.);
#241=ORIENTED_EDGE('',*,*,#441,.T.);
#242=ORIENTED_EDGE('',*,*,#381,.F.);
#243=ORIENTED_EDGE('',*,*,#443,.F.);
#244=ORIENTED_EDGE('',*,*,#444,.F.);
#245=ORIENTED_EDGE('',*,*,#360,.F.);
#246=ORIENTED_EDGE('',*,*,#442,.T.);
#247=ORIENTED_EDGE('',*,*,#383,.T.);
#248=ORIENTED_EDGE('',*,*,#440,.F.);
#249=ORIENTED_EDGE('',*,*,#445,.T.);
#250=ORIENTED_EDGE('',*,*,#446,.F.);
#251=ORIENTED_EDGE('',*,*,#355,.F.);
#252=ORIENTED_EDGE('',*,*,#447,.T.);
#253=ORIENTED_EDGE('',*,*,#376,.T.);
#254=ORIENTED_EDGE('',*,*,#448,.T.);
#255=ORIENTED_EDGE('',*,*,#378,.F.);
#256=ORIENTED_EDGE('',*,*,#449,.F.);
#257=ORIENTED_EDGE('',*,*,#357,.T.);
#258=ORIENTED_EDGE('',*,*,#377,.F.);
#259=ORIENTED_EDGE('',*,*,#447,.F.);
#260=ORIENTED_EDGE('',*,*,#354,.T.);
#261=ORIENTED_EDGE('',*,*,#449,.T.);
#262=ORIENTED_EDGE('',*,*,#379,.T.);
#263=ORIENTED_EDGE('',*,*,#448,.F.);
#264=ORIENTED_EDGE('',*,*,#356,.F.);
#265=ORIENTED_EDGE('',*,*,#446,.T.);
#266=ORIENTED_EDGE('',*,*,#330,.T.);
#267=ORIENTED_EDGE('',*,*,#450,.T.);
#268=ORIENTED_EDGE('',*,*,#343,.F.);
#269=ORIENTED_EDGE('',*,*,#451,.F.);
#270=ORIENTED_EDGE('',*,*,#451,.T.);
#271=ORIENTED_EDGE('',*,*,#342,.T.);
#272=ORIENTED_EDGE('',*,*,#452,.F.);
#273=ORIENTED_EDGE('',*,*,#331,.F.);
#274=ORIENTED_EDGE('',*,*,#452,.T.);
#275=ORIENTED_EDGE('',*,*,#345,.T.);
#276=ORIENTED_EDGE('',*,*,#453,.F.);
#277=ORIENTED_EDGE('',*,*,#332,.F.);
#278=ORIENTED_EDGE('',*,*,#333,.T.);
#279=ORIENTED_EDGE('',*,*,#453,.T.);
#280=ORIENTED_EDGE('',*,*,#344,.F.);
#281=ORIENTED_EDGE('',*,*,#450,.F.);
#282=ORIENTED_EDGE('',*,*,#314,.T.);
#283=ORIENTED_EDGE('',*,*,#454,.T.);
#284=ORIENTED_EDGE('',*,*,#347,.F.);
#285=ORIENTED_EDGE('',*,*,#455,.F.);
#286=ORIENTED_EDGE('',*,*,#455,.T.);
#287=ORIENTED_EDGE('',*,*,#346,.T.);
#288=ORIENTED_EDGE('',*,*,#456,.F.);
#289=ORIENTED_EDGE('',*,*,#315,.F.);
#290=ORIENTED_EDGE('',*,*,#456,.T.);
#291=ORIENTED_EDGE('',*,*,#349,.T.);
#292=ORIENTED_EDGE('',*,*,#457,.F.);
#293=ORIENTED_EDGE('',*,*,#316,.F.);
#294=ORIENTED_EDGE('',*,*,#317,.T.);
#295=ORIENTED_EDGE('',*,*,#457,.T.);
#296=ORIENTED_EDGE('',*,*,#348,.F.);
#297=ORIENTED_EDGE('',*,*,#454,.F.);
#298=ORIENTED_EDGE('',*,*,#334,.T.);
#299=ORIENTED_EDGE('',*,*,#458,.T.);
#300=ORIENTED_EDGE('',*,*,#351,.F.);
#301=ORIENTED_EDGE('',*,*,#459,.F.);
#302=ORIENTED_EDGE('',*,*,#459,.T.);
#303=ORIENTED_EDGE('',*,*,#350,.T.);
#304=ORIENTED_EDGE('',*,*,#460,.F.);
#305=ORIENTED_EDGE('',*,*,#335,.F.);
#306=ORIENTED_EDGE('',*,*,#460,.T.);
#307=ORIENTED_EDGE('',*,*,#353,.T.);
#308=ORIENTED_EDGE('',*,*,#461,.F.);
#309=ORIENTED_EDGE('',*,*,#336,.F.);
#310=ORIENTED_EDGE('',*,*,#337,.T.);
#311=ORIENTED_EDGE('',*,*,#461,.T.);
#312=ORIENTED_EDGE('',*,*,#352,.F.);
#313=ORIENTED_EDGE('',*,*,#458,.F.);
#314=EDGE_CURVE('',#462,#463,#562,.T.);
#315=EDGE_CURVE('',#462,#464,#563,.T.);
#316=EDGE_CURVE('',#464,#465,#564,.T.);
#317=EDGE_CURVE('',#463,#465,#565,.T.);
#318=EDGE_CURVE('',#466,#467,#566,.T.);
#319=EDGE_CURVE('',#468,#466,#567,.T.);
#320=EDGE_CURVE('',#468,#469,#568,.T.);
#321=EDGE_CURVE('',#470,#469,#569,.T.);
#322=EDGE_CURVE('',#471,#470,#570,.T.);
#323=EDGE_CURVE('',#471,#472,#571,.T.);
#324=EDGE_CURVE('',#472,#473,#572,.T.);
#325=EDGE_CURVE('',#473,#474,#573,.T.);
#326=EDGE_CURVE('',#475,#474,#574,.T.);
#327=EDGE_CURVE('',#475,#476,#575,.T.);
#328=EDGE_CURVE('',#477,#476,#576,.T.);
#329=EDGE_CURVE('',#467,#477,#577,.T.);
#330=EDGE_CURVE('',#478,#479,#578,.T.);
#331=EDGE_CURVE('',#478,#480,#579,.T.);
#332=EDGE_CURVE('',#480,#481,#580,.T.);
#333=EDGE_CURVE('',#479,#481,#581,.T.);
#334=EDGE_CURVE('',#482,#483,#582,.T.);
#335=EDGE_CURVE('',#482,#484,#583,.T.);
#336=EDGE_CURVE('',#484,#485,#584,.T.);
#337=EDGE_CURVE('',#483,#485,#585,.T.);
#338=EDGE_CURVE('',#486,#487,#586,.T.);
#339=EDGE_CURVE('',#488,#486,#587,.T.);
#340=EDGE_CURVE('',#488,#489,#588,.T.);
#341=EDGE_CURVE('',#489,#487,#589,.T.);
#342=EDGE_CURVE('',#490,#491,#590,.T.);
#343=EDGE_CURVE('',#490,#492,#591,.T.);
#344=EDGE_CURVE('',#492,#493,#592,.T.);
#345=EDGE_CURVE('',#491,#493,#593,.T.);
#346=EDGE_CURVE('',#494,#495,#594,.T.);
#347=EDGE_CURVE('',#494,#496,#595,.T.);
#348=EDGE_CURVE('',#496,#497,#596,.T.);
#349=EDGE_CURVE('',#495,#497,#597,.T.);
#350=EDGE_CURVE('',#498,#499,#598,.T.);
#351=EDGE_CURVE('',#498,#500,#599,.T.);
#352=EDGE_CURVE('',#500,#501,#600,.T.);
#353=EDGE_CURVE('',#499,#501,#601,.T.);
#354=EDGE_CURVE('',#502,#503,#602,.T.);
#355=EDGE_CURVE('',#502,#504,#603,.T.);
#356=EDGE_CURVE('',#504,#505,#604,.T.);
#357=EDGE_CURVE('',#503,#505,#605,.T.);
#358=EDGE_CURVE('',#506,#507,#606,.T.);
#359=EDGE_CURVE('',#506,#508,#607,.T.);
#360=EDGE_CURVE('',#508,#509,#608,.T.);
#361=EDGE_CURVE('',#507,#509,#609,.T.);
#362=EDGE_CURVE('',#510,#511,#610,.T.);
#363=EDGE_CURVE('',#510,#512,#611,.T.);
#364=EDGE_CURVE('',#512,#513,#612,.T.);
#365=EDGE_CURVE('',#511,#513,#613,.T.);
#366=EDGE_CURVE('',#475,#514,#614,.T.);
#367=EDGE_CURVE('',#515,#514,#615,.T.);
#368=EDGE_CURVE('',#472,#515,#616,.T.);
#369=EDGE_CURVE('',#471,#516,#617,.T.);
#370=EDGE_CURVE('',#516,#517,#618,.T.);
#371=EDGE_CURVE('',#518,#517,#619,.T.);
#372=EDGE_CURVE('',#518,#519,#620,.T.);
#373=EDGE_CURVE('',#519,#520,#621,.T.);
#374=EDGE_CURVE('',#520,#521,#622,.T.);
#375=EDGE_CURVE('',#521,#476,#623,.T.);
#376=EDGE_CURVE('',#522,#523,#624,.T.);
#377=EDGE_CURVE('',#522,#524,#625,.T.);
#378=EDGE_CURVE('',#524,#525,#626,.T.);
#379=EDGE_CURVE('',#523,#525,#627,.T.);
#380=EDGE_CURVE('',#526,#527,#628,.T.);
#381=EDGE_CURVE('',#526,#528,#629,.T.);
#382=EDGE_CURVE('',#528,#529,#630,.T.);
#383=EDGE_CURVE('',#527,#529,#631,.T.);
#384=EDGE_CURVE('',#530,#531,#632,.T.);
#385=EDGE_CURVE('',#530,#532,#633,.T.);
#386=EDGE_CURVE('',#532,#533,#634,.T.);
#387=EDGE_CURVE('',#531,#533,#635,.T.);
#388=EDGE_CURVE('',#534,#535,#636,.T.);
#389=EDGE_CURVE('',#536,#534,#637,.T.);
#390=EDGE_CURVE('',#536,#537,#638,.T.);
#391=EDGE_CURVE('',#538,#537,#639,.T.);
#392=EDGE_CURVE('',#470,#538,#640,.T.);
#393=EDGE_CURVE('',#469,#539,#641,.T.);
#394=EDGE_CURVE('',#539,#540,#642,.T.);
#395=EDGE_CURVE('',#467,#540,#643,.T.);
#396=EDGE_CURVE('',#541,#477,#644,.T.);
#397=EDGE_CURVE('',#535,#541,#645,.T.);
#398=EDGE_CURVE('',#520,#542,#646,.T.);
#399=EDGE_CURVE('',#543,#542,#647,.T.);
#400=EDGE_CURVE('',#517,#543,#648,.T.);
#401=EDGE_CURVE('',#516,#538,#649,.T.);
#402=EDGE_CURVE('',#544,#537,#650,.T.);
#403=EDGE_CURVE('',#544,#545,#651,.T.);
#404=EDGE_CURVE('',#545,#535,#652,.T.);
#405=EDGE_CURVE('',#541,#521,#653,.T.);
#406=EDGE_CURVE('',#486,#546,#654,.T.);
#407=EDGE_CURVE('',#547,#546,#655,.T.);
#408=EDGE_CURVE('',#488,#547,#656,.T.);
#409=EDGE_CURVE('',#546,#548,#657,.T.);
#410=EDGE_CURVE('',#549,#548,#658,.T.);
#411=EDGE_CURVE('',#547,#549,#659,.T.);
#412=EDGE_CURVE('',#487,#548,#660,.T.);
#413=EDGE_CURVE('',#489,#549,#661,.T.);
#414=EDGE_CURVE('',#540,#550,#662,.T.);
#415=EDGE_CURVE('',#539,#551,#663,.T.);
#416=EDGE_CURVE('',#551,#550,#664,.T.);
#417=EDGE_CURVE('',#466,#552,#665,.T.);
#418=EDGE_CURVE('',#553,#552,#666,.T.);
#419=EDGE_CURVE('',#468,#553,#667,.T.);
#420=EDGE_CURVE('',#474,#552,#668,.T.);
#421=EDGE_CURVE('',#473,#553,#669,.T.);
#422=EDGE_CURVE('',#514,#554,#670,.T.);
#423=EDGE_CURVE('',#555,#554,#671,.T.);
#424=EDGE_CURVE('',#515,#555,#672,.T.);
#425=EDGE_CURVE('',#554,#519,#673,.T.);
#426=EDGE_CURVE('',#555,#518,#674,.T.);
#427=EDGE_CURVE('',#556,#542,#675,.T.);
#428=EDGE_CURVE('',#557,#556,#676,.T.);
#429=EDGE_CURVE('',#557,#543,#677,.T.);
#430=EDGE_CURVE('',#556,#545,#678,.T.);
#431=EDGE_CURVE('',#557,#544,#679,.T.);
#432=EDGE_CURVE('',#550,#534,#680,.T.);
#433=EDGE_CURVE('',#551,#536,#681,.T.);
#434=EDGE_CURVE('',#558,#558,#12,.T.);
#435=EDGE_CURVE('',#559,#559,#13,.T.);
#436=EDGE_CURVE('',#513,#533,#682,.T.);
#437=EDGE_CURVE('',#511,#532,#683,.T.);
#438=EDGE_CURVE('',#512,#531,#684,.T.);
#439=EDGE_CURVE('',#510,#530,#685,.T.);
#440=EDGE_CURVE('',#509,#529,#686,.T.);
#441=EDGE_CURVE('',#507,#528,#687,.T.);
#442=EDGE_CURVE('',#508,#527,#688,.T.);
#443=EDGE_CURVE('',#506,#526,#689,.T.);
#444=EDGE_CURVE('',#560,#560,#14,.T.);
#445=EDGE_CURVE('',#561,#561,#15,.T.);
#446=EDGE_CURVE('',#504,#523,#690,.T.);
#447=EDGE_CURVE('',#502,#522,#691,.T.);
#448=EDGE_CURVE('',#505,#525,#692,.T.);
#449=EDGE_CURVE('',#503,#524,#693,.T.);
#450=EDGE_CURVE('',#479,#492,#694,.T.);
#451=EDGE_CURVE('',#478,#490,#695,.T.);
#452=EDGE_CURVE('',#480,#491,#696,.T.);
#453=EDGE_CURVE('',#481,#493,#697,.T.);
#454=EDGE_CURVE('',#463,#496,#698,.T.);
#455=EDGE_CURVE('',#462,#494,#699,.T.);
#456=EDGE_CURVE('',#464,#495,#700,.T.);
#457=EDGE_CURVE('',#465,#497,#701,.T.);
#458=EDGE_CURVE('',#483,#500,#702,.T.);
#459=EDGE_CURVE('',#482,#498,#703,.T.);
#460=EDGE_CURVE('',#484,#499,#704,.T.);
#461=EDGE_CURVE('',#485,#501,#705,.T.);
#462=VERTEX_POINT('',#1389);
#463=VERTEX_POINT('',#1390);
#464=VERTEX_POINT('',#1392);
#465=VERTEX_POINT('',#1394);
#466=VERTEX_POINT('',#1397);
#467=VERTEX_POINT('',#1398);
#468=VERTEX_POINT('',#1400);
#469=VERTEX_POINT('',#1402);
#470=VERTEX_POINT('',#1404);
#471=VERTEX_POINT('',#1406);
#472=VERTEX_POINT('',#1408);
#473=VERTEX_POINT('',#1410);
#474=VERTEX_POINT('',#1412);
#475=VERTEX_POINT('',#1414);
#476=VERTEX_POINT('',#1416);
#477=VERTEX_POINT('',#1418);
#478=VERTEX_POINT('',#1421);
#479=VERTEX_POINT('',#1422);
#480=VERTEX_POINT('',#1424);
#481=VERTEX_POINT('',#1426);
#482=VERTEX_POINT('',#1429);
#483=VERTEX_POINT('',#1430);
#484=VERTEX_POINT('',#1432);
#485=VERTEX_POINT('',#1434);
#486=VERTEX_POINT('',#1438);
#487=VERTEX_POINT('',#1439);
#488=VERTEX_POINT('',#1441);
#489=VERTEX_POINT('',#1443);
#490=VERTEX_POINT('',#1446);
#491=VERTEX_POINT('',#1447);
#492=VERTEX_POINT('',#1449);
#493=VERTEX_POINT('',#1451);
#494=VERTEX_POINT('',#1454);
#495=VERTEX_POINT('',#1455);
#496=VERTEX_POINT('',#1457);
#497=VERTEX_POINT('',#1459);
#498=VERTEX_POINT('',#1462);
#499=VERTEX_POINT('',#1463);
#500=VERTEX_POINT('',#1465);
#501=VERTEX_POINT('',#1467);
#502=VERTEX_POINT('',#1471);
#503=VERTEX_POINT('',#1472);
#504=VERTEX_POINT('',#1474);
#505=VERTEX_POINT('',#1476);
#506=VERTEX_POINT('',#1479);
#507=VERTEX_POINT('',#1480);
#508=VERTEX_POINT('',#1482);
#509=VERTEX_POINT('',#1484);
#510=VERTEX_POINT('',#1487);
#511=VERTEX_POINT('',#1488);
#512=VERTEX_POINT('',#1490);
#513=VERTEX_POINT('',#1492);
#514=VERTEX_POINT('',#1495);
#515=VERTEX_POINT('',#1497);
#516=VERTEX_POINT('',#1500);
#517=VERTEX_POINT('',#1502);
#518=VERTEX_POINT('',#1504);
#519=VERTEX_POINT('',#1506);
#520=VERTEX_POINT('',#1508);
#521=VERTEX_POINT('',#1510);
#522=VERTEX_POINT('',#1514);
#523=VERTEX_POINT('',#1515);
#524=VERTEX_POINT('',#1517);
#525=VERTEX_POINT('',#1519);
#526=VERTEX_POINT('',#1522);
#527=VERTEX_POINT('',#1523);
#528=VERTEX_POINT('',#1525);
#529=VERTEX_POINT('',#1527);
#530=VERTEX_POINT('',#1530);
#531=VERTEX_POINT('',#1531);
#532=VERTEX_POINT('',#1533);
#533=VERTEX_POINT('',#1535);
#534=VERTEX_POINT('',#1538);
#535=VERTEX_POINT('',#1539);
#536=VERTEX_POINT('',#1541);
#537=VERTEX_POINT('',#1543);
#538=VERTEX_POINT('',#1545);
#539=VERTEX_POINT('',#1548);
#540=VERTEX_POINT('',#1550);
#541=VERTEX_POINT('',#1553);
#542=VERTEX_POINT('',#1557);
#543=VERTEX_POINT('',#1559);
#544=VERTEX_POINT('',#1563);
#545=VERTEX_POINT('',#1565);
#546=VERTEX_POINT('',#1570);
#547=VERTEX_POINT('',#1572);
#548=VERTEX_POINT('',#1576);
#549=VERTEX_POINT('',#1578);
#550=VERTEX_POINT('',#1588);
#551=VERTEX_POINT('',#1590);
#552=VERTEX_POINT('',#1594);
#553=VERTEX_POINT('',#1596);
#554=VERTEX_POINT('',#1603);
#555=VERTEX_POINT('',#1605);
#556=VERTEX_POINT('',#1612);
#557=VERTEX_POINT('',#1614);
#558=VERTEX_POINT('',#1624);
#559=VERTEX_POINT('',#1626);
#560=VERTEX_POINT('',#1645);
#561=VERTEX_POINT('',#1647);
#562=LINE('',#1388,#706);
#563=LINE('',#1391,#707);
#564=LINE('',#1393,#708);
#565=LINE('',#1395,#709);
#566=LINE('',#1396,#710);
#567=LINE('',#1399,#711);
#568=LINE('',#1401,#712);
#569=LINE('',#1403,#713);
#570=LINE('',#1405,#714);
#571=LINE('',#1407,#715);
#572=LINE('',#1409,#716);
#573=LINE('',#1411,#717);
#574=LINE('',#1413,#718);
#575=LINE('',#1415,#719);
#576=LINE('',#1417,#720);
#577=LINE('',#1419,#721);
#578=LINE('',#1420,#722);
#579=LINE('',#1423,#723);
#580=LINE('',#1425,#724);
#581=LINE('',#1427,#725);
#582=LINE('',#1428,#726);
#583=LINE('',#1431,#727);
#584=LINE('',#1433,#728);
#585=LINE('',#1435,#729);
#586=LINE('',#1437,#730);
#587=LINE('',#1440,#731);
#588=LINE('',#1442,#732);
#589=LINE('',#1444,#733);
#590=LINE('',#1445,#734);
#591=LINE('',#1448,#735);
#592=LINE('',#1450,#736);
#593=LINE('',#1452,#737);
#594=LINE('',#1453,#738);
#595=LINE('',#1456,#739);
#596=LINE('',#1458,#740);
#597=LINE('',#1460,#741);
#598=LINE('',#1461,#742);
#599=LINE('',#1464,#743);
#600=LINE('',#1466,#744);
#601=LINE('',#1468,#745);
#602=LINE('',#1470,#746);
#603=LINE('',#1473,#747);
#604=LINE('',#1475,#748);
#605=LINE('',#1477,#749);
#606=LINE('',#1478,#750);
#607=LINE('',#1481,#751);
#608=LINE('',#1483,#752);
#609=LINE('',#1485,#753);
#610=LINE('',#1486,#754);
#611=LINE('',#1489,#755);
#612=LINE('',#1491,#756);
#613=LINE('',#1493,#757);
#614=LINE('',#1494,#758);
#615=LINE('',#1496,#759);
#616=LINE('',#1498,#760);
#617=LINE('',#1499,#761);
#618=LINE('',#1501,#762);
#619=LINE('',#1503,#763);
#620=LINE('',#1505,#764);
#621=LINE('',#1507,#765);
#622=LINE('',#1509,#766);
#623=LINE('',#1511,#767);
#624=LINE('',#1513,#768);
#625=LINE('',#1516,#769);
#626=LINE('',#1518,#770);
#627=LINE('',#1520,#771);
#628=LINE('',#1521,#772);
#629=LINE('',#1524,#773);
#630=LINE('',#1526,#774);
#631=LINE('',#1528,#775);
#632=LINE('',#1529,#776);
#633=LINE('',#1532,#777);
#634=LINE('',#1534,#778);
#635=LINE('',#1536,#779);
#636=LINE('',#1537,#780);
#637=LINE('',#1540,#781);
#638=LINE('',#1542,#782);
#639=LINE('',#1544,#783);
#640=LINE('',#1546,#784);
#641=LINE('',#1547,#785);
#642=LINE('',#1549,#786);
#643=LINE('',#1551,#787);
#644=LINE('',#1552,#788);
#645=LINE('',#1554,#789);
#646=LINE('',#1556,#790);
#647=LINE('',#1558,#791);
#648=LINE('',#1560,#792);
#649=LINE('',#1561,#793);
#650=LINE('',#1562,#794);
#651=LINE('',#1564,#795);
#652=LINE('',#1566,#796);
#653=LINE('',#1567,#797);
#654=LINE('',#1569,#798);
#655=LINE('',#1571,#799);
#656=LINE('',#1573,#800);
#657=LINE('',#1575,#801);
#658=LINE('',#1577,#802);
#659=LINE('',#1579,#803);
#660=LINE('',#1581,#804);
#661=LINE('',#1582,#805);
#662=LINE('',#1587,#806);
#663=LINE('',#1589,#807);
#664=LINE('',#1591,#808);
#665=LINE('',#1593,#809);
#666=LINE('',#1595,#810);
#667=LINE('',#1597,#811);
#668=LINE('',#1599,#812);
#669=LINE('',#1600,#813);
#670=LINE('',#1602,#814);
#671=LINE('',#1604,#815);
#672=LINE('',#1606,#816);
#673=LINE('',#1608,#817);
#674=LINE('',#1609,#818);
#675=LINE('',#1611,#819);
#676=LINE('',#1613,#820);
#677=LINE('',#1615,#821);
#678=LINE('',#1617,#822);
#679=LINE('',#1618,#823);
#680=LINE('',#1620,#824);
#681=LINE('',#1621,#825);
#682=LINE('',#1630,#826);
#683=LINE('',#1631,#827);
#684=LINE('',#1633,#828);
#685=LINE('',#1634,#829);
#686=LINE('',#1638,#830);
#687=LINE('',#1639,#831);
#688=LINE('',#1641,#832);
#689=LINE('',#1642,#833);
#690=LINE('',#1651,#834);
#691=LINE('',#1652,#835);
#692=LINE('',#1654,#836);
#693=LINE('',#1655,#837);
#694=LINE('',#1659,#838);
#695=LINE('',#1660,#839);
#696=LINE('',#1662,#840);
#697=LINE('',#1664,#841);
#698=LINE('',#1667,#842);
#699=LINE('',#1668,#843);
#700=LINE('',#1670,#844);
#701=LINE('',#1672,#845);
#702=LINE('',#1675,#846);
#703=LINE('',#1676,#847);
#704=LINE('',#1678,#848);
#705=LINE('',#1680,#849);
#706=VECTOR('',#1142,1.);
#707=VECTOR('',#1143,1.);
#708=VECTOR('',#1144,1.);
#709=VECTOR('',#1145,1.);
#710=VECTOR('',#1146,1.);
#711=VECTOR('',#1147,1.);
#712=VECTOR('',#1148,1.);
#713=VECTOR('',#1149,1.);
#714=VECTOR('',#1150,1.);
#715=VECTOR('',#1151,1.);
#716=VECTOR('',#1152,1.);
#717=VECTOR('',#1153,1.);
#718=VECTOR('',#1154,1.);
#719=VECTOR('',#1155,1.);
#720=VECTOR('',#1156,1.);
#721=VECTOR('',#1157,1.);
#722=VECTOR('',#1158,1.);
#723=VECTOR('',#1159,1.);
#724=VECTOR('',#1160,1.);
#725=VECTOR('',#1161,1.);
#726=VECTOR('',#1162,1.);
#727=VECTOR('',#1163,1.);
#728=VECTOR('',#1164,1.);
#729=VECTOR('',#1165,1.);
#730=VECTOR('',#1168,1.);
#731=VECTOR('',#1169,1.);
#732=VECTOR('',#1170,1.);
#733=VECTOR('',#1171,1.);
#734=VECTOR('',#1172,1.);
#735=VECTOR('',#1173,1.);
#736=VECTOR('',#1174,1.);
#737=VECTOR('',#1175,1.);
#738=VECTOR('',#1176,1.);
#739=VECTOR('',#1177,1.);
#740=VECTOR('',#1178,1.);
#741=VECTOR('',#1179,1.);
#742=VECTOR('',#1180,1.);
#743=VECTOR('',#1181,1.);
#744=VECTOR('',#1182,1.);
#745=VECTOR('',#1183,1.);
#746=VECTOR('',#1186,1.);
#747=VECTOR('',#1187,1.);
#748=VECTOR('',#1188,1.);
#749=VECTOR('',#1189,1.);
#750=VECTOR('',#1190,1.);
#751=VECTOR('',#1191,1.);
#752=VECTOR('',#1192,1.);
#753=VECTOR('',#1193,1.);
#754=VECTOR('',#1194,1.);
#755=VECTOR('',#1195,1.);
#756=VECTOR('',#1196,1.);
#757=VECTOR('',#1197,1.);
#758=VECTOR('',#1198,1.);
#759=VECTOR('',#1199,1.);
#760=VECTOR('',#1200,1.);
#761=VECTOR('',#1201,1.);
#762=VECTOR('',#1202,1.);
#763=VECTOR('',#1203,1.);
#764=VECTOR('',#1204,1.);
#765=VECTOR('',#1205,1.);
#766=VECTOR('',#1206,1.);
#767=VECTOR('',#1207,1.);
#768=VECTOR('',#1210,1.);
#769=VECTOR('',#1211,1.);
#770=VECTOR('',#1212,1.);
#771=VECTOR('',#1213,1.);
#772=VECTOR('',#1214,1.);
#773=VECTOR('',#1215,1.);
#774=VECTOR('',#1216,1.);
#775=VECTOR('',#1217,1.);
#776=VECTOR('',#1218,1.);
#777=VECTOR('',#1219,1.);
#778=VECTOR('',#1220,1.);
#779=VECTOR('',#1221,1.);
#780=VECTOR('',#1222,1.);
#781=VECTOR('',#1223,1.);
#782=VECTOR('',#1224,1.);
#783=VECTOR('',#1225,1.);
#784=VECTOR('',#1226,1.);
#785=VECTOR('',#1227,1.);
#786=VECTOR('',#1228,1.);
#787=VECTOR('',#1229,1.);
#788=VECTOR('',#1230,1.);
#789=VECTOR('',#1231,1.);
#790=VECTOR('',#1234,1.);
#791=VECTOR('',#1235,1.);
#792=VECTOR('',#1236,1.);
#793=VECTOR('',#1237,1.);
#794=VECTOR('',#1238,1.);
#795=VECTOR('',#1239,1.);
#796=VECTOR('',#1240,1.);
#797=VECTOR('',#1241,1.);
#798=VECTOR('',#1244,1.);
#799=VECTOR('',#1245,1.);
#800=VECTOR('',#1246,1.);
#801=VECTOR('',#1249,1.);
#802=VECTOR('',#1250,1.);
#803=VECTOR('',#1251,1.);
#804=VECTOR('',#1254,1.);
#805=VECTOR('',#1255,1.);
#806=VECTOR('',#1264,1.);
#807=VECTOR('',#1265,1.);
#808=VECTOR('',#1266,1.);
#809=VECTOR('',#1269,1.);
#810=VECTOR('',#1270,1.);
#811=VECTOR('',#1271,1.);
#812=VECTOR('',#1274,1.);
#813=VECTOR('',#1275,1.);
#814=VECTOR('',#1278,1.);
#815=VECTOR('',#1279,1.);
#816=VECTOR('',#1280,1.);
#817=VECTOR('',#1283,1.);
#818=VECTOR('',#1284,1.);
#819=VECTOR('',#1287,1.);
#820=VECTOR('',#1288,1.);
#821=VECTOR('',#1289,1.);
#822=VECTOR('',#1292,1.);
#823=VECTOR('',#1293,1.);
#824=VECTOR('',#1296,1.);
#825=VECTOR('',#1297,1.);
#826=VECTOR('',#1310,1.);
#827=VECTOR('',#1311,1.);
#828=VECTOR('',#1314,1.);
#829=VECTOR('',#1315,1.);
#830=VECTOR('',#1322,1.);
#831=VECTOR('',#1323,1.);
#832=VECTOR('',#1326,1.);
#833=VECTOR('',#1327,1.);
#834=VECTOR('',#1340,1.);
#835=VECTOR('',#1341,1.);
#836=VECTOR('',#1344,1.);
#837=VECTOR('',#1345,1.);
#838=VECTOR('',#1352,1.);
#839=VECTOR('',#1353,1.);
#840=VECTOR('',#1356,1.);
#841=VECTOR('',#1359,1.);
#842=VECTOR('',#1364,1.);
#843=VECTOR('',#1365,1.);
#844=VECTOR('',#1368,1.);
#845=VECTOR('',#1371,1.);
#846=VECTOR('',#1376,1.);
#847=VECTOR('',#1377,1.);
#848=VECTOR('',#1380,1.);
#849=VECTOR('',#1383,1.);
#850=EDGE_LOOP('',(#18,#19,#20,#21));
#851=EDGE_LOOP('',(#22,#23,#24,#25,#26,#27,#28,#29,#30,#31,#32,#33));
#852=EDGE_LOOP('',(#34,#35,#36,#37));
#853=EDGE_LOOP('',(#38,#39,#40,#41));
#854=EDGE_LOOP('',(#42,#43,#44,#45));
#855=EDGE_LOOP('',(#46,#47,#48,#49));
#856=EDGE_LOOP('',(#50,#51,#52,#53));
#857=EDGE_LOOP('',(#54,#55,#56,#57));
#858=EDGE_LOOP('',(#58,#59,#60,#61));
#859=EDGE_LOOP('',(#62,#63,#64,#65));
#860=EDGE_LOOP('',(#66,#67,#68,#69));
#861=EDGE_LOOP('',(#70,#71,#72,#73,#74,#75,#76,#77,#78,#79,#80,#81));
#862=EDGE_LOOP('',(#82,#83,#84,#85));
#863=EDGE_LOOP('',(#86,#87,#88,#89));
#864=EDGE_LOOP('',(#90,#91,#92,#93));
#865=EDGE_LOOP('',(#94,#95,#96,#97,#98,#99,#100,#101,#102,#103,#104,#105));
#866=EDGE_LOOP('',(#106,#107,#108,#109,#110,#111,#112,#113,#114,#115,#116,
#117));
#867=EDGE_LOOP('',(#118,#119,#120,#121));
#868=EDGE_LOOP('',(#122,#123,#124,#125));
#869=EDGE_LOOP('',(#126,#127,#128,#129));
#870=EDGE_LOOP('',(#130,#131,#132,#133));
#871=EDGE_LOOP('',(#134,#135,#136,#137));
#872=EDGE_LOOP('',(#138,#139,#140,#141));
#873=EDGE_LOOP('',(#142,#143,#144,#145));
#874=EDGE_LOOP('',(#146,#147,#148,#149));
#875=EDGE_LOOP('',(#150,#151,#152,#153));
#876=EDGE_LOOP('',(#154,#155,#156,#157));
#877=EDGE_LOOP('',(#158,#159,#160,#161));
#878=EDGE_LOOP('',(#162,#163,#164,#165));
#879=EDGE_LOOP('',(#166,#167,#168,#169));
#880=EDGE_LOOP('',(#170,#171,#172,#173));
#881=EDGE_LOOP('',(#174,#175,#176,#177));
#882=EDGE_LOOP('',(#178));
#883=EDGE_LOOP('',(#179));
#884=EDGE_LOOP('',(#180,#181,#182,#183,#184,#185,#186,#187,#188,#189,#190,
#191,#192,#193,#194,#195));
#885=EDGE_LOOP('',(#196));
#886=EDGE_LOOP('',(#197,#198,#199,#200,#201,#202,#203,#204,#205,#206,#207,
#208,#209,#210,#211,#212));
#887=EDGE_LOOP('',(#213));
#888=EDGE_LOOP('',(#214,#215,#216,#217));
#889=EDGE_LOOP('',(#218,#219,#220,#221));
#890=EDGE_LOOP('',(#222,#223,#224,#225));
#891=EDGE_LOOP('',(#226,#227,#228,#229));
#892=EDGE_LOOP('',(#230,#231,#232,#233));
#893=EDGE_LOOP('',(#234,#235,#236,#237));
#894=EDGE_LOOP('',(#238));
#895=EDGE_LOOP('',(#239));
#896=EDGE_LOOP('',(#240,#241,#242,#243));
#897=EDGE_LOOP('',(#244));
#898=EDGE_LOOP('',(#245,#246,#247,#248));
#899=EDGE_LOOP('',(#249));
#900=EDGE_LOOP('',(#250,#251,#252,#253));
#901=EDGE_LOOP('',(#254,#255,#256,#257));
#902=EDGE_LOOP('',(#258,#259,#260,#261));
#903=EDGE_LOOP('',(#262,#263,#264,#265));
#904=EDGE_LOOP('',(#266,#267,#268,#269));
#905=EDGE_LOOP('',(#270,#271,#272,#273));
#906=EDGE_LOOP('',(#274,#275,#276,#277));
#907=EDGE_LOOP('',(#278,#279,#280,#281));
#908=EDGE_LOOP('',(#282,#283,#284,#285));
#909=EDGE_LOOP('',(#286,#287,#288,#289));
#910=EDGE_LOOP('',(#290,#291,#292,#293));
#911=EDGE_LOOP('',(#294,#295,#296,#297));
#912=EDGE_LOOP('',(#298,#299,#300,#301));
#913=EDGE_LOOP('',(#302,#303,#304,#305));
#914=EDGE_LOOP('',(#306,#307,#308,#309));
#915=EDGE_LOOP('',(#310,#311,#312,#313));
#916=FACE_BOUND('',#850,.T.);
#917=FACE_BOUND('',#851,.T.);
#918=FACE_BOUND('',#852,.T.);
#919=FACE_BOUND('',#853,.T.);
#920=FACE_BOUND('',#854,.T.);
#921=FACE_BOUND('',#855,.T.);
#922=FACE_BOUND('',#856,.T.);
#923=FACE_BOUND('',#857,.T.);
#924=FACE_BOUND('',#858,.T.);
#925=FACE_BOUND('',#859,.T.);
#926=FACE_BOUND('',#860,.T.);
#927=FACE_BOUND('',#861,.T.);
#928=FACE_BOUND('',#862,.T.);
#929=FACE_BOUND('',#863,.T.);
#930=FACE_BOUND('',#864,.T.);
#931=FACE_BOUND('',#865,.T.);
#932=FACE_BOUND('',#866,.T.);
#933=FACE_BOUND('',#867,.T.);
#934=FACE_BOUND('',#868,.T.);
#935=FACE_BOUND('',#869,.T.);
#936=FACE_BOUND('',#870,.T.);
#937=FACE_BOUND('',#871,.T.);
#938=FACE_BOUND('',#872,.T.);
#939=FACE_BOUND('',#873,.T.);
#940=FACE_BOUND('',#874,.T.);
#941=FACE_BOUND('',#875,.T.);
#942=FACE_BOUND('',#876,.T.);
#943=FACE_BOUND('',#877,.T.);
#944=FACE_BOUND('',#878,.T.);
#945=FACE_BOUND('',#879,.T.);
#946=FACE_BOUND('',#880,.T.);
#947=FACE_BOUND('',#881,.T.);
#948=FACE_BOUND('',#882,.T.);
#949=FACE_BOUND('',#883,.T.);
#950=FACE_BOUND('',#884,.T.);
#951=FACE_BOUND('',#885,.T.);
#952=FACE_BOUND('',#886,.T.);
#953=FACE_BOUND('',#887,.T.);
#954=FACE_BOUND('',#888,.T.);
#955=FACE_BOUND('',#889,.T.);
#956=FACE_BOUND('',#890,.T.);
#957=FACE_BOUND('',#891,.T.);
#958=FACE_BOUND('',#892,.T.);
#959=FACE_BOUND('',#893,.T.);
#960=FACE_BOUND('',#894,.T.);
#961=FACE_BOUND('',#895,.T.);
#962=FACE_BOUND('',#896,.T.);
#963=FACE_BOUND('',#897,.T.);
#964=FACE_BOUND('',#898,.T.);
#965=FACE_BOUND('',#899,.T.);
#966=FACE_BOUND('',#900,.T.);
#967=FACE_BOUND('',#901,.T.);
#968=FACE_BOUND('',#902,.T.);
#969=FACE_BOUND('',#903,.T.);
#970=FACE_BOUND('',#904,.T.);
#971=FACE_BOUND('',#905,.T.);
#972=FACE_BOUND('',#906,.T.);
#973=FACE_BOUND('',#907,.T.);
#974=FACE_BOUND('',#908,.T.);
#975=FACE_BOUND('',#909,.T.);
#976=FACE_BOUND('',#910,.T.);
#977=FACE_BOUND('',#911,.T.);
#978=FACE_BOUND('',#912,.T.);
#979=FACE_BOUND('',#913,.T.);
#980=FACE_BOUND('',#914,.T.);
#981=FACE_BOUND('',#915,.T.);
#982=PLANE('',#1087);
#983=PLANE('',#1088);
#984=PLANE('',#1089);
#985=PLANE('',#1090);
#986=PLANE('',#1091);
#987=PLANE('',#1092);
#988=PLANE('',#1093);
#989=PLANE('',#1094);
#990=PLANE('',#1095);
#991=PLANE('',#1096);
#992=PLANE('',#1097);
#993=PLANE('',#1098);
#994=PLANE('',#1099);
#995=PLANE('',#1100);
#996=PLANE('',#1101);
#997=PLANE('',#1102);
#998=PLANE('',#1103);
#999=PLANE('',#1104);
#1000=PLANE('',#1105);
#1001=PLANE('',#1109);
#1002=PLANE('',#1110);
#1003=PLANE('',#1111);
#1004=PLANE('',#1112);
#1005=PLANE('',#1113);
#1006=PLANE('',#1114);
#1007=PLANE('',#1115);
#1008=PLANE('',#1116);
#1009=PLANE('',#1120);
#1010=PLANE('',#1121);
#1011=PLANE('',#1122);
#1012=PLANE('',#1123);
#1013=PLANE('',#1124);
#1014=PLANE('',#1125);
#1015=PLANE('',#1126);
#1016=PLANE('',#1127);
#1017=PLANE('',#1128);
#1018=PLANE('',#1129);
#1019=PLANE('',#1130);
#1020=PLANE('',#1131);
#1021=PLANE('',#1132);
#1022=PLANE('',#1133);
#1023=PLANE('',#1134);
#1024=PLANE('',#1135);
#1025=PLANE('',#1136);
#1026=PLANE('',#1137);
#1027=ADVANCED_FACE('',(#916,#917,#918,#919),#982,.F.);
#1028=ADVANCED_FACE('',(#920,#921,#922,#923),#983,.T.);
#1029=ADVANCED_FACE('',(#924,#925,#926,#927),#984,.T.);
#1030=ADVANCED_FACE('',(#928,#929,#930,#931),#985,.F.);
#1031=ADVANCED_FACE('',(#932),#986,.T.);
#1032=ADVANCED_FACE('',(#933),#987,.F.);
#1033=ADVANCED_FACE('',(#934),#988,.F.);
#1034=ADVANCED_FACE('',(#935),#989,.T.);
#1035=ADVANCED_FACE('',(#936),#990,.F.);
#1036=ADVANCED_FACE('',(#937,#938),#991,.T.);
#1037=ADVANCED_FACE('',(#939),#992,.T.);
#1038=ADVANCED_FACE('',(#940),#993,.T.);
#1039=ADVANCED_FACE('',(#941),#994,.F.);
#1040=ADVANCED_FACE('',(#942),#995,.T.);
#1041=ADVANCED_FACE('',(#943),#996,.F.);
#1042=ADVANCED_FACE('',(#944),#997,.F.);
#1043=ADVANCED_FACE('',(#945),#998,.T.);
#1044=ADVANCED_FACE('',(#946),#999,.F.);
#1045=ADVANCED_FACE('',(#947),#1000,.T.);
#1046=ADVANCED_FACE('',(#948,#949),#16,.F.);
#1047=ADVANCED_FACE('',(#950,#951),#1001,.T.);
#1048=ADVANCED_FACE('',(#952,#953),#1002,.F.);
#1049=ADVANCED_FACE('',(#954),#1003,.F.);
#1050=ADVANCED_FACE('',(#955),#1004,.T.);
#1051=ADVANCED_FACE('',(#956),#1005,.T.);
#1052=ADVANCED_FACE('',(#957),#1006,.F.);
#1053=ADVANCED_FACE('',(#958),#1007,.F.);
#1054=ADVANCED_FACE('',(#959),#1008,.T.);
#1055=ADVANCED_FACE('',(#960,#961),#17,.F.);
#1056=ADVANCED_FACE('',(#962,#963),#1009,.T.);
#1057=ADVANCED_FACE('',(#964,#965),#1010,.F.);
#1058=ADVANCED_FACE('',(#966),#1011,.T.);
#1059=ADVANCED_FACE('',(#967),#1012,.F.);
#1060=ADVANCED_FACE('',(#968),#1013,.T.);
#1061=ADVANCED_FACE('',(#969),#1014,.F.);
#1062=ADVANCED_FACE('',(#970),#1015,.T.);
#1063=ADVANCED_FACE('',(#971),#1016,.F.);
#1064=ADVANCED_FACE('',(#972),#1017,.F.);
#1065=ADVANCED_FACE('',(#973),#1018,.T.);
#1066=ADVANCED_FACE('',(#974),#1019,.T.);
#1067=ADVANCED_FACE('',(#975),#1020,.F.);
#1068=ADVANCED_FACE('',(#976),#1021,.F.);
#1069=ADVANCED_FACE('',(#977),#1022,.T.);
#1070=ADVANCED_FACE('',(#978),#1023,.T.);
#1071=ADVANCED_FACE('',(#979),#1024,.F.);
#1072=ADVANCED_FACE('',(#980),#1025,.F.);
#1073=ADVANCED_FACE('',(#981),#1026,.T.);
#1074=CLOSED_SHELL('',(#1027,#1028,#1029,#1030,#1031,#1032,#1033,#1034,
#1035,#1036,#1037,#1038,#1039,#1040,#1041,#1042,#1043,#1044,#1045,#1046,
#1047,#1048,#1049,#1050,#1051,#1052,#1053,#1054,#1055,#1056,#1057,#1058,
#1059,#1060,#1061,#1062,#1063,#1064,#1065,#1066,#1067,#1068,#1069,#1070,
#1071,#1072,#1073));
#1075=STYLED_ITEM('',(#1076),#1083);
#1076=PRESENTATION_STYLE_ASSIGNMENT((#1077));
#1077=SURFACE_STYLE_USAGE(.BOTH.,#1078);
#1078=SURFACE_SIDE_STYLE('',(#1079));
#1079=SURFACE_STYLE_FILL_AREA(#1080);
#1080=FILL_AREA_STYLE('',(#1081));
#1081=FILL_AREA_STYLE_COLOUR('',#1082);
#1082=COLOUR_RGB('',0.615686274509804,0.811764705882353,0.929411764705882);
#1083=MANIFOLD_SOLID_BREP('Ghast Body',#1074);
#1084=SHAPE_DEFINITION_REPRESENTATION(#1688,#1085);
#1085=SHAPE_REPRESENTATION('Ghast Body',(#1086),#1683);
#1086=AXIS2_PLACEMENT_3D('',#1386,#1138,#1139);
#1087=AXIS2_PLACEMENT_3D('',#1387,#1140,#1141);
#1088=AXIS2_PLACEMENT_3D('',#1436,#1166,#1167);
#1089=AXIS2_PLACEMENT_3D('',#1469,#1184,#1185);
#1090=AXIS2_PLACEMENT_3D('',#1512,#1208,#1209);
#1091=AXIS2_PLACEMENT_3D('',#1555,#1232,#1233);
#1092=AXIS2_PLACEMENT_3D('',#1568,#1242,#1243);
#1093=AXIS2_PLACEMENT_3D('',#1574,#1247,#1248);
#1094=AXIS2_PLACEMENT_3D('',#1580,#1252,#1253);
#1095=AXIS2_PLACEMENT_3D('',#1583,#1256,#1257);
#1096=AXIS2_PLACEMENT_3D('',#1584,#1258,#1259);
#1097=AXIS2_PLACEMENT_3D('',#1585,#1260,#1261);
#1098=AXIS2_PLACEMENT_3D('',#1586,#1262,#1263);
#1099=AXIS2_PLACEMENT_3D('',#1592,#1267,#1268);
#1100=AXIS2_PLACEMENT_3D('',#1598,#1272,#1273);
#1101=AXIS2_PLACEMENT_3D('',#1601,#1276,#1277);
#1102=AXIS2_PLACEMENT_3D('',#1607,#1281,#1282);
#1103=AXIS2_PLACEMENT_3D('',#1610,#1285,#1286);
#1104=AXIS2_PLACEMENT_3D('',#1616,#1290,#1291);
#1105=AXIS2_PLACEMENT_3D('',#1619,#1294,#1295);
#1106=AXIS2_PLACEMENT_3D('',#1622,#1298,#1299);
#1107=AXIS2_PLACEMENT_3D('',#1623,#1300,#1301);
#1108=AXIS2_PLACEMENT_3D('',#1625,#1302,#1303);
#1109=AXIS2_PLACEMENT_3D('',#1627,#1304,#1305);
#1110=AXIS2_PLACEMENT_3D('',#1628,#1306,#1307);
#1111=AXIS2_PLACEMENT_3D('',#1629,#1308,#1309);
#1112=AXIS2_PLACEMENT_3D('',#1632,#1312,#1313);
#1113=AXIS2_PLACEMENT_3D('',#1635,#1316,#1317);
#1114=AXIS2_PLACEMENT_3D('',#1636,#1318,#1319);
#1115=AXIS2_PLACEMENT_3D('',#1637,#1320,#1321);
#1116=AXIS2_PLACEMENT_3D('',#1640,#1324,#1325);
#1117=AXIS2_PLACEMENT_3D('',#1643,#1328,#1329);
#1118=AXIS2_PLACEMENT_3D('',#1644,#1330,#1331);
#1119=AXIS2_PLACEMENT_3D('',#1646,#1332,#1333);
#1120=AXIS2_PLACEMENT_3D('',#1648,#1334,#1335);
#1121=AXIS2_PLACEMENT_3D('',#1649,#1336,#1337);
#1122=AXIS2_PLACEMENT_3D('',#1650,#1338,#1339);
#1123=AXIS2_PLACEMENT_3D('',#1653,#1342,#1343);
#1124=AXIS2_PLACEMENT_3D('',#1656,#1346,#1347);
#1125=AXIS2_PLACEMENT_3D('',#1657,#1348,#1349);
#1126=AXIS2_PLACEMENT_3D('',#1658,#1350,#1351);
#1127=AXIS2_PLACEMENT_3D('',#1661,#1354,#1355);
#1128=AXIS2_PLACEMENT_3D('',#1663,#1357,#1358);
#1129=AXIS2_PLACEMENT_3D('',#1665,#1360,#1361);
#1130=AXIS2_PLACEMENT_3D('',#1666,#1362,#1363);
#1131=AXIS2_PLACEMENT_3D('',#1669,#1366,#1367);
#1132=AXIS2_PLACEMENT_3D('',#1671,#1369,#1370);
#1133=AXIS2_PLACEMENT_3D('',#1673,#1372,#1373);
#1134=AXIS2_PLACEMENT_3D('',#1674,#1374,#1375);
#1135=AXIS2_PLACEMENT_3D('',#1677,#1378,#1379);
#1136=AXIS2_PLACEMENT_3D('',#1679,#1381,#1382);
#1137=AXIS2_PLACEMENT_3D('',#1681,#1384,#1385);
#1138=DIRECTION('',(0.,0.,1.));
#1139=DIRECTION('',(1.,0.,0.));
#1140=DIRECTION('',(0.,1.,0.));
#1141=DIRECTION('',(0.,0.,1.));
#1142=DIRECTION('',(-1.,0.,5.33761069531325E-16));
#1143=DIRECTION('',(0.,0.,-1.));
#1144=DIRECTION('',(-1.,0.,0.));
#1145=DIRECTION('',(0.,0.,-1.));
#1146=DIRECTION('',(1.,0.,0.));
#1147=DIRECTION('',(0.,0.,-1.));
#1148=DIRECTION('',(1.,0.,0.));
#1149=DIRECTION('',(0.,0.,-1.));
#1150=DIRECTION('',(1.,0.,0.));
#1151=DIRECTION('',(0.,0.,-1.));
#1152=DIRECTION('',(1.,0.,0.));
#1153=DIRECTION('',(0.,0.,-1.));
#1154=DIRECTION('',(1.,0.,0.));
#1155=DIRECTION('',(0.,0.,-1.));
#1156=DIRECTION('',(-1.,0.,0.));
#1157=DIRECTION('',(0.,0.,-1.));
#1158=DIRECTION('',(-1.,0.,0.));
#1159=DIRECTION('',(0.,0.,-1.));
#1160=DIRECTION('',(-1.,0.,0.));
#1161=DIRECTION('',(0.,0.,-1.));
#1162=DIRECTION('',(3.46944695195361E-16,0.,-1.));
#1163=DIRECTION('',(1.,0.,0.));
#1164=DIRECTION('',(0.,0.,-1.));
#1165=DIRECTION('',(1.,0.,0.));
#1166=DIRECTION('',(0.,1.,0.));
#1167=DIRECTION('',(0.,0.,1.));
#1168=DIRECTION('',(1.,0.,0.));
#1169=DIRECTION('',(0.,0.,-1.));
#1170=DIRECTION('',(1.,0.,0.));
#1171=DIRECTION('',(0.,0.,-1.));
#1172=DIRECTION('',(0.,0.,-1.));
#1173=DIRECTION('',(-1.,0.,0.));
#1174=DIRECTION('',(0.,0.,-1.));
#1175=DIRECTION('',(-1.,0.,0.));
#1176=DIRECTION('',(0.,0.,-1.));
#1177=DIRECTION('',(-1.,0.,5.33761069531325E-16));
#1178=DIRECTION('',(0.,0.,-1.));
#1179=DIRECTION('',(-1.,0.,0.));
#1180=DIRECTION('',(1.,0.,0.));
#1181=DIRECTION('',(3.46944695195361E-16,0.,-1.));
#1182=DIRECTION('',(1.,0.,0.));
#1183=DIRECTION('',(0.,0.,-1.));
#1184=DIRECTION('',(1.,0.,0.));
#1185=DIRECTION('',(0.,0.,-1.));
#1186=DIRECTION('',(0.,-1.,0.));
#1187=DIRECTION('',(0.,0.,-1.));
#1188=DIRECTION('',(0.,-1.,0.));
#1189=DIRECTION('',(0.,0.,-1.));
#1190=DIRECTION('',(0.,-1.,0.));
#1191=DIRECTION('',(0.,0.,-1.));
#1192=DIRECTION('',(0.,-1.,0.));
#1193=DIRECTION('',(0.,0.,-1.));
#1194=DIRECTION('',(0.,-1.,0.));
#1195=DIRECTION('',(0.,0.,-1.));
#1196=DIRECTION('',(0.,-1.,0.));
#1197=DIRECTION('',(0.,0.,-1.));
#1198=DIRECTION('',(0.,-1.,0.));
#1199=DIRECTION('',(0.,0.,-1.));
#1200=DIRECTION('',(0.,-1.,0.));
#1201=DIRECTION('',(0.,-1.,0.));
#1202=DIRECTION('',(0.,0.,-1.));
#1203=DIRECTION('',(0.,-1.,0.));
#1204=DIRECTION('',(0.,0.,-1.));
#1205=DIRECTION('',(0.,-1.,0.));
#1206=DIRECTION('',(0.,0.,-1.));
#1207=DIRECTION('',(0.,1.,0.));
#1208=DIRECTION('',(1.,0.,0.));
#1209=DIRECTION('',(0.,0.,-1.));
#1210=DIRECTION('',(0.,0.,-1.));
#1211=DIRECTION('',(0.,-1.,0.));
#1212=DIRECTION('',(0.,0.,-1.));
#1213=DIRECTION('',(0.,-1.,0.));
#1214=DIRECTION('',(0.,0.,-1.));
#1215=DIRECTION('',(0.,-1.,0.));
#1216=DIRECTION('',(0.,0.,-1.));
#1217=DIRECTION('',(0.,-1.,0.));
#1218=DIRECTION('',(0.,0.,-1.));
#1219=DIRECTION('',(0.,-1.,0.));
#1220=DIRECTION('',(0.,0.,-1.));
#1221=DIRECTION('',(0.,-1.,0.));
#1222=DIRECTION('',(0.,-1.,0.));
#1223=DIRECTION('',(0.,0.,-1.));
#1224=DIRECTION('',(0.,-1.,0.));
#1225=DIRECTION('',(0.,0.,-1.));
#1226=DIRECTION('',(0.,-1.,0.));
#1227=DIRECTION('',(0.,-1.,0.));
#1228=DIRECTION('',(0.,0.,-1.));
#1229=DIRECTION('',(0.,-1.,0.));
#1230=DIRECTION('',(0.,1.,0.));
#1231=DIRECTION('',(0.,0.,-1.));
#1232=DIRECTION('',(0.,1.,0.));
#1233=DIRECTION('',(0.,0.,1.));
#1234=DIRECTION('',(1.,0.,0.));
#1235=DIRECTION('',(0.,0.,-1.));
#1236=DIRECTION('',(1.,0.,0.));
#1237=DIRECTION('',(1.,0.,0.));
#1238=DIRECTION('',(1.,0.,0.));
#1239=DIRECTION('',(0.,0.,-1.));
#1240=DIRECTION('',(1.,0.,0.));
#1241=DIRECTION('',(-1.,0.,0.));
#1242=DIRECTION('',(1.,3.46944695195361E-17,0.));
#1243=DIRECTION('',(-3.46944695195361E-17,1.,0.));
#1244=DIRECTION('',(3.46944695195361E-17,-1.,0.));
#1245=DIRECTION('',(0.,0.,-1.));
#1246=DIRECTION('',(3.46944695195361E-17,-1.,0.));
#1247=DIRECTION('',(0.,1.,0.));
#1248=DIRECTION('',(0.,0.,1.));
#1249=DIRECTION('',(1.,0.,0.));
#1250=DIRECTION('',(0.,0.,-1.));
#1251=DIRECTION('',(1.,0.,0.));
#1252=DIRECTION('',(1.,0.,0.));
#1253=DIRECTION('',(0.,0.,-1.));
#1254=DIRECTION('',(0.,-1.,0.));
#1255=DIRECTION('',(0.,-1.,0.));
#1256=DIRECTION('',(0.,0.,1.));
#1257=DIRECTION('',(1.,0.,0.));
#1258=DIRECTION('',(0.,0.,1.));
#1259=DIRECTION('',(1.,0.,0.));
#1260=DIRECTION('',(0.,0.,1.));
#1261=DIRECTION('',(1.,0.,0.));
#1262=DIRECTION('',(0.707106781186547,-0.707106781186548,0.));
#1263=DIRECTION('',(0.707106781186548,0.707106781186547,0.));
#1264=DIRECTION('',(-0.707106781186548,-0.707106781186547,0.));
#1265=DIRECTION('',(-0.707106781186548,-0.707106781186547,0.));
#1266=DIRECTION('',(0.,0.,-1.));
#1267=DIRECTION('',(0.707106781186547,-0.707106781186548,0.));
#1268=DIRECTION('',(0.707106781186548,0.707106781186548,0.));
#1269=DIRECTION('',(-0.707106781186548,-0.707106781186548,0.));
#1270=DIRECTION('',(0.,0.,-1.));
#1271=DIRECTION('',(-0.707106781186548,-0.707106781186548,0.));
#1272=DIRECTION('',(0.707106781186548,0.707106781186547,0.));
#1273=DIRECTION('',(-0.707106781186547,0.707106781186548,0.));
#1274=DIRECTION('',(0.707106781186547,-0.707106781186548,0.));
#1275=DIRECTION('',(0.707106781186547,-0.707106781186548,0.));
#1276=DIRECTION('',(0.707106781186548,0.707106781186547,0.));
#1277=DIRECTION('',(-0.707106781186548,0.707106781186548,0.));
#1278=DIRECTION('',(0.707106781186548,-0.707106781186548,0.));
#1279=DIRECTION('',(0.,0.,-1.));
#1280=DIRECTION('',(0.707106781186548,-0.707106781186548,0.));
#1281=DIRECTION('',(0.707106781186548,-0.707106781186548,0.));
#1282=DIRECTION('',(0.707106781186548,0.707106781186548,0.));
#1283=DIRECTION('',(-0.707106781186548,-0.707106781186548,0.));
#1284=DIRECTION('',(-0.707106781186548,-0.707106781186548,0.));
#1285=DIRECTION('',(0.707106781186547,-0.707106781186548,0.));
#1286=DIRECTION('',(0.707106781186548,0.707106781186548,0.));
#1287=DIRECTION('',(-0.707106781186548,-0.707106781186548,0.));
#1288=DIRECTION('',(0.,0.,-1.));
#1289=DIRECTION('',(-0.707106781186548,-0.707106781186548,0.));
#1290=DIRECTION('',(0.707106781186548,0.707106781186547,0.));
#1291=DIRECTION('',(-0.707106781186547,0.707106781186548,0.));
#1292=DIRECTION('',(0.707106781186547,-0.707106781186548,0.));
#1293=DIRECTION('',(0.707106781186547,-0.707106781186548,0.));
#1294=DIRECTION('',(0.707106781186548,0.707106781186547,0.));
#1295=DIRECTION('',(-0.707106781186547,0.707106781186548,0.));
#1296=DIRECTION('',(0.707106781186547,-0.707106781186548,0.));
#1297=DIRECTION('',(0.707106781186547,-0.707106781186548,0.));
#1298=DIRECTION('',(0.,0.,-1.));
#1299=DIRECTION('',(-1.,0.,0.));
#1300=DIRECTION('',(0.,0.,1.));
#1301=DIRECTION('',(1.,0.,0.));
#1302=DIRECTION('',(0.,0.,1.));
#1303=DIRECTION('',(1.,0.,0.));
#1304=DIRECTION('',(0.,0.,1.));
#1305=DIRECTION('',(1.,0.,0.));
#1306=DIRECTION('',(0.,0.,1.));
#1307=DIRECTION('',(1.,0.,0.));
#1308=DIRECTION('',(0.,1.,0.));
#1309=DIRECTION('',(0.,0.,1.));
#1310=DIRECTION('',(1.,0.,0.));
#1311=DIRECTION('',(1.,0.,0.));
#1312=DIRECTION('',(0.,1.,0.));
#1313=DIRECTION('',(0.,0.,1.));
#1314=DIRECTION('',(1.,0.,0.));
#1315=DIRECTION('',(1.,0.,0.));
#1316=DIRECTION('',(0.,0.,1.));
#1317=DIRECTION('',(1.,0.,0.));
#1318=DIRECTION('',(0.,0.,1.));
#1319=DIRECTION('',(1.,0.,0.));
#1320=DIRECTION('',(-1.51728735764354E-16,1.,0.));
#1321=DIRECTION('',(-1.,-1.51728735764354E-16,0.));
#1322=DIRECTION('',(1.,1.51728735764354E-16,0.));
#1323=DIRECTION('',(1.,1.51728735764354E-16,0.));
#1324=DIRECTION('',(0.,1.,0.));
#1325=DIRECTION('',(0.,0.,1.));
#1326=DIRECTION('',(1.,0.,0.));
#1327=DIRECTION('',(1.,0.,0.));
#1328=DIRECTION('',(0.,0.,-1.));
#1329=DIRECTION('',(-1.,0.,0.));
#1330=DIRECTION('',(0.,0.,1.));
#1331=DIRECTION('',(1.,0.,0.));
#1332=DIRECTION('',(0.,0.,1.));
#1333=DIRECTION('',(1.,0.,0.));
#1334=DIRECTION('',(0.,0.,1.));
#1335=DIRECTION('',(1.,0.,0.));
#1336=DIRECTION('',(0.,0.,1.));
#1337=DIRECTION('',(1.,0.,0.));
#1338=DIRECTION('',(0.,1.,0.));
#1339=DIRECTION('',(0.,0.,1.));
#1340=DIRECTION('',(1.,0.,0.));
#1341=DIRECTION('',(1.,0.,0.));
#1342=DIRECTION('',(0.,1.,0.));
#1343=DIRECTION('',(0.,0.,1.));
#1344=DIRECTION('',(1.,0.,0.));
#1345=DIRECTION('',(1.,0.,0.));
#1346=DIRECTION('',(0.,0.,1.));
#1347=DIRECTION('',(1.,0.,0.));
#1348=DIRECTION('',(0.,0.,1.));
#1349=DIRECTION('',(1.,0.,0.));
#1350=DIRECTION('',(0.,0.,-1.));
#1351=DIRECTION('',(-1.,0.,0.));
#1352=DIRECTION('',(0.,1.,0.));
#1353=DIRECTION('',(0.,1.,0.));
#1354=DIRECTION('',(1.,0.,0.));
#1355=DIRECTION('',(0.,0.,-1.));
#1356=DIRECTION('',(0.,1.,0.));
#1357=DIRECTION('',(0.,0.,-1.));
#1358=DIRECTION('',(-1.,0.,0.));
#1359=DIRECTION('',(0.,1.,0.));
#1360=DIRECTION('',(1.,0.,0.));
#1361=DIRECTION('',(0.,0.,-1.));
#1362=DIRECTION('',(-5.33761069531325E-16,0.,-1.));
#1363=DIRECTION('',(-1.,0.,5.33761069531325E-16));
#1364=DIRECTION('',(0.,1.,0.));
#1365=DIRECTION('',(0.,1.,0.));
#1366=DIRECTION('',(1.,0.,0.));
#1367=DIRECTION('',(0.,0.,-1.));
#1368=DIRECTION('',(0.,1.,0.));
#1369=DIRECTION('',(0.,0.,-1.));
#1370=DIRECTION('',(-1.,0.,0.));
#1371=DIRECTION('',(0.,1.,0.));
#1372=DIRECTION('',(1.,0.,0.));
#1373=DIRECTION('',(0.,0.,-1.));
#1374=DIRECTION('',(1.,0.,3.46944695195361E-16));
#1375=DIRECTION('',(3.46944695195361E-16,0.,-1.));
#1376=DIRECTION('',(0.,1.,0.));
#1377=DIRECTION('',(0.,1.,0.));
#1378=DIRECTION('',(0.,0.,1.));
#1379=DIRECTION('',(1.,0.,0.));
#1380=DIRECTION('',(0.,1.,0.));
#1381=DIRECTION('',(1.,0.,0.));
#1382=DIRECTION('',(0.,0.,-1.));
#1383=DIRECTION('',(0.,1.,0.));
#1384=DIRECTION('',(0.,0.,1.));
#1385=DIRECTION('',(1.,0.,0.));
#1386=CARTESIAN_POINT('',(0.,0.,0.));
#1387=CARTESIAN_POINT('',(-0.10980078874982,0.334573239535094,0.4));
#1388=CARTESIAN_POINT('',(-0.10980078874982,0.334573239535094,0.115));
#1389=CARTESIAN_POINT('',(0.0616636773442478,0.334573239535094,0.115));
#1390=CARTESIAN_POINT('',(-0.0683363226557522,0.334573239535094,0.115));
#1391=CARTESIAN_POINT('',(0.0616636773442478,0.334573239535094,0.4));
#1392=CARTESIAN_POINT('',(0.0616636773442478,0.334573239535094,0.095));
#1393=CARTESIAN_POINT('',(-0.10980078874982,0.334573239535094,0.095));
#1394=CARTESIAN_POINT('',(-0.0683363226557522,0.334573239535094,0.095));
#1395=CARTESIAN_POINT('',(-0.0683363226557522,0.334573239535094,0.4));
#1396=CARTESIAN_POINT('',(0.273128143438315,0.334573239535094,0.185));
#1397=CARTESIAN_POINT('',(0.269592609532382,0.334573239535094,0.185));
#1398=CARTESIAN_POINT('',(0.276663677344248,0.334573239535094,0.185));
#1399=CARTESIAN_POINT('',(0.269592609532382,0.334573239535094,0.215));
#1400=CARTESIAN_POINT('',(0.269592609532382,0.334573239535094,0.215));
#1401=CARTESIAN_POINT('',(0.273128143438315,0.334573239535094,0.215));
#1402=CARTESIAN_POINT('',(0.276663677344248,0.334573239535094,0.215));
#1403=CARTESIAN_POINT('',(0.276663677344248,0.334573239535094,0.4));
#1404=CARTESIAN_POINT('',(0.276663677344248,0.334573239535094,0.4));
#1405=CARTESIAN_POINT('',(-0.10980078874982,0.334573239535094,0.4));
#1406=CARTESIAN_POINT('',(-0.113336322655752,0.334573239535094,0.4));
#1407=CARTESIAN_POINT('',(-0.113336322655752,0.334573239535094,0.4));
#1408=CARTESIAN_POINT('',(-0.113336322655752,0.334573239535094,0.215));
#1409=CARTESIAN_POINT('',(-0.10980078874982,0.334573239535094,0.215));
#1410=CARTESIAN_POINT('',(-0.106265254843887,0.334573239535094,0.215));
#1411=CARTESIAN_POINT('',(-0.106265254843887,0.334573239535094,0.215));
#1412=CARTESIAN_POINT('',(-0.106265254843887,0.334573239535094,0.185));
#1413=CARTESIAN_POINT('',(-0.10980078874982,0.334573239535094,0.185));
#1414=CARTESIAN_POINT('',(-0.113336322655752,0.334573239535094,0.185));
#1415=CARTESIAN_POINT('',(-0.113336322655752,0.334573239535094,0.4));
#1416=CARTESIAN_POINT('',(-0.113336322655752,0.334573239535094,0.01));
#1417=CARTESIAN_POINT('',(0.263584299509488,0.334573239535094,0.01));
#1418=CARTESIAN_POINT('',(0.276663677344248,0.334573239535094,0.01));
#1419=CARTESIAN_POINT('',(0.276663677344248,0.334573239535094,0.4));
#1420=CARTESIAN_POINT('',(-0.10980078874982,0.334573239535094,0.115));
#1421=CARTESIAN_POINT('',(0.231663677344248,0.334573239535094,0.115));
#1422=CARTESIAN_POINT('',(0.101663677344248,0.334573239535094,0.115));
#1423=CARTESIAN_POINT('',(0.231663677344248,0.334573239535094,0.4));
#1424=CARTESIAN_POINT('',(0.231663677344248,0.334573239535094,0.095));
#1425=CARTESIAN_POINT('',(-0.10980078874982,0.334573239535094,0.095));
#1426=CARTESIAN_POINT('',(0.101663677344248,0.334573239535094,0.095));
#1427=CARTESIAN_POINT('',(0.101663677344248,0.334573239535094,0.4));
#1428=CARTESIAN_POINT('',(0.0316636773442477,0.334573239535094,0.4));
#1429=CARTESIAN_POINT('',(0.0316636773442477,0.334573239535094,0.335));
#1430=CARTESIAN_POINT('',(0.0316636773442477,0.334573239535094,0.315));
#1431=CARTESIAN_POINT('',(-0.10980078874982,0.334573239535094,0.335));
#1432=CARTESIAN_POINT('',(0.131663677344248,0.334573239535094,0.335));
#1433=CARTESIAN_POINT('',(0.131663677344248,0.334573239535094,0.4));
#1434=CARTESIAN_POINT('',(0.131663677344248,0.334573239535094,0.315));
#1435=CARTESIAN_POINT('',(-0.10980078874982,0.334573239535094,0.315));
#1436=CARTESIAN_POINT('',(0.0816636773442477,0.339573239535094,0.01));
#1437=CARTESIAN_POINT('',(0.0816636773442477,0.339573239535094,0.));
#1438=CARTESIAN_POINT('',(-0.118336322655752,0.339573239535094,0.));
#1439=CARTESIAN_POINT('',(0.281663677344248,0.339573239535094,0.));
#1440=CARTESIAN_POINT('',(-0.118336322655752,0.339573239535094,0.01));
#1441=CARTESIAN_POINT('',(-0.118336322655752,0.339573239535094,0.4));
#1442=CARTESIAN_POINT('',(0.0816636773442477,0.339573239535094,0.4));
#1443=CARTESIAN_POINT('',(0.281663677344248,0.339573239535094,0.4));
#1444=CARTESIAN_POINT('',(0.281663677344248,0.339573239535094,0.01));
#1445=CARTESIAN_POINT('',(0.231663677344248,0.339573239535094,0.105));
#1446=CARTESIAN_POINT('',(0.231663677344248,0.339573239535094,0.115));
#1447=CARTESIAN_POINT('',(0.231663677344248,0.339573239535094,0.095));
#1448=CARTESIAN_POINT('',(0.166663677344248,0.339573239535094,0.115));
#1449=CARTESIAN_POINT('',(0.101663677344248,0.339573239535094,0.115));
#1450=CARTESIAN_POINT('',(0.101663677344248,0.339573239535094,0.105));
#1451=CARTESIAN_POINT('',(0.101663677344248,0.339573239535094,0.095));
#1452=CARTESIAN_POINT('',(0.166663677344248,0.339573239535094,0.095));
#1453=CARTESIAN_POINT('',(0.0616636773442478,0.339573239535094,0.105));
#1454=CARTESIAN_POINT('',(0.0616636773442478,0.339573239535094,0.115));
#1455=CARTESIAN_POINT('',(0.0616636773442478,0.339573239535094,0.095));
#1456=CARTESIAN_POINT('',(-0.00333632265575221,0.339573239535094,0.115));
#1457=CARTESIAN_POINT('',(-0.0683363226557522,0.339573239535094,0.115));
#1458=CARTESIAN_POINT('',(-0.0683363226557522,0.339573239535094,0.105));
#1459=CARTESIAN_POINT('',(-0.0683363226557522,0.339573239535094,0.095));
#1460=CARTESIAN_POINT('',(-0.00333632265575221,0.339573239535094,0.095));
#1461=CARTESIAN_POINT('',(0.0816636773442478,0.339573239535094,0.335));
#1462=CARTESIAN_POINT('',(0.0316636773442477,0.339573239535094,0.335));
#1463=CARTESIAN_POINT('',(0.131663677344248,0.339573239535094,0.335));
#1464=CARTESIAN_POINT('',(0.0316636773442477,0.339573239535094,0.325));
#1465=CARTESIAN_POINT('',(0.0316636773442478,0.339573239535094,0.315));
#1466=CARTESIAN_POINT('',(0.0816636773442478,0.339573239535094,0.315));
#1467=CARTESIAN_POINT('',(0.131663677344248,0.339573239535094,0.315));
#1468=CARTESIAN_POINT('',(0.131663677344248,0.339573239535094,0.325));
#1469=CARTESIAN_POINT('',(-0.113336322655752,-0.0418912265589739,0.4));
#1470=CARTESIAN_POINT('',(-0.113336322655752,0.309573239535094,0.375));
#1471=CARTESIAN_POINT('',(-0.113336322655752,0.314573239535094,0.375));
#1472=CARTESIAN_POINT('',(-0.113336322655752,0.304573239535094,0.375));
#1473=CARTESIAN_POINT('',(-0.113336322655752,0.314573239535094,0.375));
#1474=CARTESIAN_POINT('',(-0.113336322655752,0.314573239535094,0.35));
#1475=CARTESIAN_POINT('',(-0.113336322655752,0.309573239535094,0.35));
#1476=CARTESIAN_POINT('',(-0.113336322655752,0.304573239535094,0.35));
#1477=CARTESIAN_POINT('',(-0.113336322655752,0.304573239535094,0.375));
#1478=CARTESIAN_POINT('',(-0.113336322655752,0.139573239535093,0.375));
#1479=CARTESIAN_POINT('',(-0.113336322655752,0.144573239535093,0.375));
#1480=CARTESIAN_POINT('',(-0.113336322655752,0.134573239535093,0.375));
#1481=CARTESIAN_POINT('',(-0.113336322655752,0.144573239535093,0.375));
#1482=CARTESIAN_POINT('',(-0.113336322655752,0.144573239535093,0.35));
#1483=CARTESIAN_POINT('',(-0.113336322655752,0.139573239535093,0.35));
#1484=CARTESIAN_POINT('',(-0.113336322655752,0.134573239535093,0.35));
#1485=CARTESIAN_POINT('',(-0.113336322655752,0.134573239535093,0.375));
#1486=CARTESIAN_POINT('',(-0.113336322655752,-0.0304267604649067,0.375));
#1487=CARTESIAN_POINT('',(-0.113336322655752,-0.0254267604649067,0.375));
#1488=CARTESIAN_POINT('',(-0.113336322655752,-0.0354267604649067,0.375));
#1489=CARTESIAN_POINT('',(-0.113336322655752,-0.0254267604649067,0.375));
#1490=CARTESIAN_POINT('',(-0.113336322655752,-0.0254267604649067,0.35));
#1491=CARTESIAN_POINT('',(-0.113336322655752,-0.0304267604649067,0.35));
#1492=CARTESIAN_POINT('',(-0.113336322655752,-0.0354267604649067,0.35));
#1493=CARTESIAN_POINT('',(-0.113336322655752,-0.0354267604649067,0.375));
#1494=CARTESIAN_POINT('',(-0.113336322655752,0.331037705629161,0.185));
#1495=CARTESIAN_POINT('',(-0.113336322655752,0.327502171723228,0.185));
#1496=CARTESIAN_POINT('',(-0.113336322655752,0.327502171723228,0.215));
#1497=CARTESIAN_POINT('',(-0.113336322655752,0.327502171723228,0.215));
#1498=CARTESIAN_POINT('',(-0.113336322655752,0.331037705629161,0.215));
#1499=CARTESIAN_POINT('',(-0.113336322655752,-0.0418912265589739,0.4));
#1500=CARTESIAN_POINT('',(-0.113336322655752,-0.0554267604649067,0.4));
#1501=CARTESIAN_POINT('',(-0.113336322655752,-0.0554267604649067,0.4));
#1502=CARTESIAN_POINT('',(-0.113336322655752,-0.0554267604649067,0.215));
#1503=CARTESIAN_POINT('',(-0.113336322655752,-0.0518912265589739,0.215));
#1504=CARTESIAN_POINT('',(-0.113336322655752,-0.048355692653041,0.215));
#1505=CARTESIAN_POINT('',(-0.113336322655752,-0.048355692653041,0.215));
#1506=CARTESIAN_POINT('',(-0.113336322655752,-0.048355692653041,0.185));
#1507=CARTESIAN_POINT('',(-0.113336322655752,-0.0518912265589739,0.185));
#1508=CARTESIAN_POINT('',(-0.113336322655752,-0.0554267604649067,0.185));
#1509=CARTESIAN_POINT('',(-0.113336322655752,-0.0554267604649067,0.4));
#1510=CARTESIAN_POINT('',(-0.113336322655752,-0.0554267604649067,0.01));
#1511=CARTESIAN_POINT('',(-0.113336322655752,0.139573239535093,0.01));
#1512=CARTESIAN_POINT('',(0.276663677344248,0.331037705629161,0.4));
#1513=CARTESIAN_POINT('',(0.276663677344248,0.314573239535094,0.375));
#1514=CARTESIAN_POINT('',(0.276663677344248,0.314573239535094,0.375));
#1515=CARTESIAN_POINT('',(0.276663677344248,0.314573239535094,0.35));
#1516=CARTESIAN_POINT('',(0.276663677344248,0.309573239535094,0.375));
#1517=CARTESIAN_POINT('',(0.276663677344248,0.304573239535094,0.375));
#1518=CARTESIAN_POINT('',(0.276663677344248,0.304573239535094,0.375));
#1519=CARTESIAN_POINT('',(0.276663677344248,0.304573239535094,0.35));
#1520=CARTESIAN_POINT('',(0.276663677344248,0.309573239535094,0.35));
#1521=CARTESIAN_POINT('',(0.276663677344248,0.144573239535093,0.375));
#1522=CARTESIAN_POINT('',(0.276663677344248,0.144573239535093,0.375));
#1523=CARTESIAN_POINT('',(0.276663677344248,0.144573239535093,0.35));
#1524=CARTESIAN_POINT('',(0.276663677344248,0.139573239535093,0.375));
#1525=CARTESIAN_POINT('',(0.276663677344248,0.134573239535093,0.375));
#1526=CARTESIAN_POINT('',(0.276663677344248,0.134573239535093,0.375));
#1527=CARTESIAN_POINT('',(0.276663677344248,0.134573239535093,0.35));
#1528=CARTESIAN_POINT('',(0.276663677344248,0.139573239535093,0.35));
#1529=CARTESIAN_POINT('',(0.276663677344248,-0.0254267604649067,0.375));
#1530=CARTESIAN_POINT('',(0.276663677344248,-0.0254267604649067,0.375));
#1531=CARTESIAN_POINT('',(0.276663677344248,-0.0254267604649067,0.35));
#1532=CARTESIAN_POINT('',(0.276663677344248,-0.0304267604649067,0.375));
#1533=CARTESIAN_POINT('',(0.276663677344248,-0.0354267604649066,0.375));
#1534=CARTESIAN_POINT('',(0.276663677344248,-0.0354267604649067,0.375));
#1535=CARTESIAN_POINT('',(0.276663677344248,-0.0354267604649067,0.35));
#1536=CARTESIAN_POINT('',(0.276663677344248,-0.0304267604649067,0.35));
#1537=CARTESIAN_POINT('',(0.276663677344248,-0.0518912265589741,0.185));
#1538=CARTESIAN_POINT('',(0.276663677344248,-0.0483556926530415,0.185));
#1539=CARTESIAN_POINT('',(0.276663677344248,-0.0554267604649067,0.185));
#1540=CARTESIAN_POINT('',(0.276663677344248,-0.0483556926530415,0.215));
#1541=CARTESIAN_POINT('',(0.276663677344248,-0.0483556926530415,0.215));
#1542=CARTESIAN_POINT('',(0.276663677344248,-0.0518912265589741,0.215));
#1543=CARTESIAN_POINT('',(0.276663677344248,-0.0554267604649067,0.215));
#1544=CARTESIAN_POINT('',(0.276663677344248,-0.0554267604649067,0.4));
#1545=CARTESIAN_POINT('',(0.276663677344248,-0.0554267604649067,0.4));
#1546=CARTESIAN_POINT('',(0.276663677344248,0.331037705629161,0.4));
#1547=CARTESIAN_POINT('',(0.276663677344248,0.331037705629161,0.215));
#1548=CARTESIAN_POINT('',(0.276663677344248,0.327502171723228,0.215));
#1549=CARTESIAN_POINT('',(0.276663677344248,0.327502171723228,0.215));
#1550=CARTESIAN_POINT('',(0.276663677344248,0.327502171723228,0.185));
#1551=CARTESIAN_POINT('',(0.276663677344248,0.331037705629161,0.185));
#1552=CARTESIAN_POINT('',(0.276663677344248,0.139573239535093,0.01));
#1553=CARTESIAN_POINT('',(0.276663677344248,-0.0554267604649067,0.01));
#1554=CARTESIAN_POINT('',(0.276663677344248,-0.0554267604649067,0.4));
#1555=CARTESIAN_POINT('',(0.273128143438315,-0.0554267604649067,0.4));
#1556=CARTESIAN_POINT('',(-0.10980078874982,-0.0554267604649067,0.185));
#1557=CARTESIAN_POINT('',(-0.106265254843887,-0.0554267604649067,0.185));
#1558=CARTESIAN_POINT('',(-0.106265254843887,-0.0554267604649067,0.215));
#1559=CARTESIAN_POINT('',(-0.106265254843887,-0.0554267604649067,0.215));
#1560=CARTESIAN_POINT('',(-0.10980078874982,-0.0554267604649067,0.215));
#1561=CARTESIAN_POINT('',(0.273128143438315,-0.0554267604649067,0.4));
#1562=CARTESIAN_POINT('',(0.273128143438315,-0.0554267604649067,0.215));
#1563=CARTESIAN_POINT('',(0.269592609532383,-0.055426760464907,0.215));
#1564=CARTESIAN_POINT('',(0.269592609532383,-0.055426760464907,0.215));
#1565=CARTESIAN_POINT('',(0.269592609532383,-0.0554267604649067,0.185));
#1566=CARTESIAN_POINT('',(0.273128143438315,-0.0554267604649067,0.185));
#1567=CARTESIAN_POINT('',(0.263584299509488,-0.0554267604649067,0.01));
#1568=CARTESIAN_POINT('',(-0.118336322655752,0.139573239535093,0.01));
#1569=CARTESIAN_POINT('',(-0.118336322655752,0.139573239535093,0.));
#1570=CARTESIAN_POINT('',(-0.118336322655752,-0.0604267604649067,0.));
#1571=CARTESIAN_POINT('',(-0.118336322655752,-0.0604267604649067,0.01));
#1572=CARTESIAN_POINT('',(-0.118336322655752,-0.0604267604649067,0.4));
#1573=CARTESIAN_POINT('',(-0.118336322655752,0.139573239535093,0.4));
#1574=CARTESIAN_POINT('',(0.0816636773442478,-0.0604267604649067,0.01));
#1575=CARTESIAN_POINT('',(0.0816636773442478,-0.0604267604649067,0.));
#1576=CARTESIAN_POINT('',(0.281663677344248,-0.0604267604649067,0.));
#1577=CARTESIAN_POINT('',(0.281663677344248,-0.0604267604649067,0.01));
#1578=CARTESIAN_POINT('',(0.281663677344248,-0.0604267604649067,0.4));
#1579=CARTESIAN_POINT('',(0.0816636773442478,-0.0604267604649067,0.4));
#1580=CARTESIAN_POINT('',(0.281663677344248,0.139573239535093,0.01));
#1581=CARTESIAN_POINT('',(0.281663677344248,0.139573239535093,0.));
#1582=CARTESIAN_POINT('',(0.281663677344248,0.139573239535093,0.4));
#1583=CARTESIAN_POINT('',(0.263584299509488,0.139573239535093,0.));
#1584=CARTESIAN_POINT('',(0.263584299509488,0.139573239535093,0.4));
#1585=CARTESIAN_POINT('',(0.263584299509488,0.139573239535093,0.01));
#1586=CARTESIAN_POINT('',(0.173734745156113,0.224573239535094,0.215));
#1587=CARTESIAN_POINT('',(0.173734745156113,0.224573239535094,0.185));
#1588=CARTESIAN_POINT('',(0.088734745156113,0.139573239535093,0.185));
#1589=CARTESIAN_POINT('',(0.173734745156113,0.224573239535094,0.215));
#1590=CARTESIAN_POINT('',(0.088734745156113,0.139573239535093,0.215));
#1591=CARTESIAN_POINT('',(0.088734745156113,0.139573239535093,0.215));
#1592=CARTESIAN_POINT('',(0.160628143438315,0.225608773441026,0.215));
#1593=CARTESIAN_POINT('',(0.160628143438315,0.225608773441026,0.185));
#1594=CARTESIAN_POINT('',(0.0816636773442476,0.146644307346959,0.185));
#1595=CARTESIAN_POINT('',(0.0816636773442476,0.146644307346959,0.215));
#1596=CARTESIAN_POINT('',(0.0816636773442476,0.146644307346959,0.215));
#1597=CARTESIAN_POINT('',(0.160628143438315,0.225608773441026,0.215));
#1598=CARTESIAN_POINT('',(0.00269921125018033,0.225608773441026,0.215));
#1599=CARTESIAN_POINT('',(0.00269921125018033,0.225608773441026,0.185));
#1600=CARTESIAN_POINT('',(0.00269921125018033,0.225608773441026,0.215));
#1601=CARTESIAN_POINT('',(-0.0104073904676179,0.224573239535094,0.215));
#1602=CARTESIAN_POINT('',(-0.0104073904676179,0.224573239535094,0.185));
#1603=CARTESIAN_POINT('',(0.0745926095323821,0.139573239535093,0.185));
#1604=CARTESIAN_POINT('',(0.0745926095323821,0.139573239535093,0.215));
#1605=CARTESIAN_POINT('',(0.0745926095323821,0.139573239535093,0.215));
#1606=CARTESIAN_POINT('',(-0.0104073904676179,0.224573239535094,0.215));
#1607=CARTESIAN_POINT('',(-0.0104073904676179,0.0545732395350933,0.215));
#1608=CARTESIAN_POINT('',(-0.0104073904676179,0.0545732395350933,0.185));
#1609=CARTESIAN_POINT('',(-0.0104073904676179,0.0545732395350933,0.215));
#1610=CARTESIAN_POINT('',(0.00269921125018026,0.0535377056291606,0.215));
#1611=CARTESIAN_POINT('',(0.00269921125018026,0.0535377056291606,0.185));
#1612=CARTESIAN_POINT('',(0.0816636773442476,0.132502171723228,0.185));
#1613=CARTESIAN_POINT('',(0.0816636773442476,0.132502171723228,0.215));
#1614=CARTESIAN_POINT('',(0.0816636773442476,0.132502171723228,0.215));
#1615=CARTESIAN_POINT('',(0.00269921125018026,0.0535377056291606,0.215));
#1616=CARTESIAN_POINT('',(0.160628143438315,0.0535377056291605,0.215));
#1617=CARTESIAN_POINT('',(0.160628143438315,0.0535377056291605,0.185));
#1618=CARTESIAN_POINT('',(0.160628143438315,0.0535377056291605,0.215));
#1619=CARTESIAN_POINT('',(0.173734745156113,0.0545732395350933,0.215));
#1620=CARTESIAN_POINT('',(0.173734745156113,0.0545732395350933,0.185));
#1621=CARTESIAN_POINT('',(0.173734745156113,0.0545732395350933,0.215));
#1622=CARTESIAN_POINT('',(0.0816636773442477,0.139573239535093,0.215));
#1623=CARTESIAN_POINT('',(0.0816636773442477,0.139573239535093,0.215));
#1624=CARTESIAN_POINT('',(0.0831636773442477,0.139573239535093,0.215));
#1625=CARTESIAN_POINT('',(0.0816636773442477,0.139573239535093,0.185));
#1626=CARTESIAN_POINT('',(0.0831636773442477,0.139573239535093,0.185));
#1627=CARTESIAN_POINT('',(0.263584299509488,0.139573239535093,0.215));
#1628=CARTESIAN_POINT('',(0.263584299509488,0.139573239535093,0.185));
#1629=CARTESIAN_POINT('',(0.0816636773442475,-0.0354267604649067,0.375));
#1630=CARTESIAN_POINT('',(0.0816636773442475,-0.0354267604649067,0.35));
#1631=CARTESIAN_POINT('',(0.0816636773442475,-0.0354267604649067,0.375));
#1632=CARTESIAN_POINT('',(0.0816636773442475,-0.0254267604649067,0.375));
#1633=CARTESIAN_POINT('',(0.0816636773442475,-0.0254267604649067,0.35));
#1634=CARTESIAN_POINT('',(0.0816636773442475,-0.0254267604649067,0.375));
#1635=CARTESIAN_POINT('',(0.263584299509488,0.139573239535093,0.375));
#1636=CARTESIAN_POINT('',(0.263584299509488,0.139573239535093,0.35));
#1637=CARTESIAN_POINT('',(0.18519921125018,0.134573239535093,0.375));
#1638=CARTESIAN_POINT('',(0.18519921125018,0.134573239535093,0.35));
#1639=CARTESIAN_POINT('',(0.18519921125018,0.134573239535093,0.375));
#1640=CARTESIAN_POINT('',(0.18519921125018,0.144573239535093,0.375));
#1641=CARTESIAN_POINT('',(0.18519921125018,0.144573239535093,0.35));
#1642=CARTESIAN_POINT('',(0.18519921125018,0.144573239535093,0.375));
#1643=CARTESIAN_POINT('',(0.0816636773442477,0.139573239535093,0.375));
#1644=CARTESIAN_POINT('',(0.0816636773442477,0.139573239535093,0.375));
#1645=CARTESIAN_POINT('',(0.0831636773442477,0.139573239535093,0.375));
#1646=CARTESIAN_POINT('',(0.0816636773442477,0.139573239535093,0.35));
#1647=CARTESIAN_POINT('',(0.0831636773442477,0.139573239535093,0.35));
#1648=CARTESIAN_POINT('',(0.263584299509488,0.139573239535093,0.375));
#1649=CARTESIAN_POINT('',(0.263584299509488,0.139573239535093,0.35));
#1650=CARTESIAN_POINT('',(0.0816636773442476,0.314573239535094,0.375));
#1651=CARTESIAN_POINT('',(0.0816636773442476,0.314573239535094,0.35));
#1652=CARTESIAN_POINT('',(0.0816636773442476,0.314573239535094,0.375));
#1653=CARTESIAN_POINT('',(0.0816636773442477,0.304573239535094,0.375));
#1654=CARTESIAN_POINT('',(0.0816636773442477,0.304573239535094,0.35));
#1655=CARTESIAN_POINT('',(0.0816636773442477,0.304573239535094,0.375));
#1656=CARTESIAN_POINT('',(0.263584299509488,0.139573239535093,0.375));
#1657=CARTESIAN_POINT('',(0.263584299509488,0.139573239535093,0.35));
#1658=CARTESIAN_POINT('',(0.166663677344248,0.314573239535094,0.115));
#1659=CARTESIAN_POINT('',(0.101663677344248,0.314573239535094,0.115));
#1660=CARTESIAN_POINT('',(0.231663677344248,0.314573239535094,0.115));
#1661=CARTESIAN_POINT('',(0.231663677344248,0.314573239535094,0.105));
#1662=CARTESIAN_POINT('',(0.231663677344248,0.314573239535094,0.095));
#1663=CARTESIAN_POINT('',(0.166663677344248,0.314573239535094,0.095));
#1664=CARTESIAN_POINT('',(0.101663677344248,0.314573239535094,0.095));
#1665=CARTESIAN_POINT('',(0.101663677344248,0.314573239535094,0.105));
#1666=CARTESIAN_POINT('',(-0.00333632265575221,0.314573239535094,0.115));
#1667=CARTESIAN_POINT('',(-0.0683363226557522,0.314573239535094,0.115));
#1668=CARTESIAN_POINT('',(0.0616636773442478,0.314573239535094,0.115));
#1669=CARTESIAN_POINT('',(0.0616636773442478,0.314573239535094,0.105));
#1670=CARTESIAN_POINT('',(0.0616636773442478,0.314573239535094,0.095));
#1671=CARTESIAN_POINT('',(-0.00333632265575221,0.314573239535094,0.095));
#1672=CARTESIAN_POINT('',(-0.0683363226557522,0.314573239535094,0.095));
#1673=CARTESIAN_POINT('',(-0.0683363226557522,0.314573239535094,0.105));
#1674=CARTESIAN_POINT('',(0.0316636773442477,0.314573239535094,0.325));
#1675=CARTESIAN_POINT('',(0.0316636773442478,0.314573239535094,0.315));
#1676=CARTESIAN_POINT('',(0.0316636773442477,0.314573239535094,0.335));
#1677=CARTESIAN_POINT('',(0.0816636773442478,0.314573239535094,0.335));
#1678=CARTESIAN_POINT('',(0.131663677344248,0.314573239535094,0.335));
#1679=CARTESIAN_POINT('',(0.131663677344248,0.314573239535094,0.325));
#1680=CARTESIAN_POINT('',(0.131663677344248,0.314573239535094,0.315));
#1681=CARTESIAN_POINT('',(0.0816636773442478,0.314573239535094,0.315));
#1682=MECHANICAL_DESIGN_GEOMETRIC_PRESENTATION_REPRESENTATION('',(#1075),
#1683);
#1683=(
GEOMETRIC_REPRESENTATION_CONTEXT(3)
GLOBAL_UNCERTAINTY_ASSIGNED_CONTEXT((#1684))
GLOBAL_UNIT_ASSIGNED_CONTEXT((#1687,#1686,#1685))
REPRESENTATION_CONTEXT('Ghast Body','TOP_LEVEL_ASSEMBLY_PART')
);
#1684=UNCERTAINTY_MEASURE_WITH_UNIT(LENGTH_MEASURE(1.E-8),#1687,
'DISTANCE_ACCURACY_VALUE','Maximum Tolerance applied to model');
#1685=(
NAMED_UNIT(*)
SI_UNIT($,.STERADIAN.)
SOLID_ANGLE_UNIT()
);
#1686=(
NAMED_UNIT(*)
PLANE_ANGLE_UNIT()
SI_UNIT($,.RADIAN.)
);
#1687=(
LENGTH_UNIT()
NAMED_UNIT(*)
SI_UNIT($,.METRE.)
);
#1688=PRODUCT_DEFINITION_SHAPE('','',#1689);
#1689=PRODUCT_DEFINITION('','',#1691,#1690);
#1690=PRODUCT_DEFINITION_CONTEXT('',#1697,'design');
#1691=PRODUCT_DEFINITION_FORMATION_WITH_SPECIFIED_SOURCE('','',#1693,
 .NOT_KNOWN.);
#1692=PRODUCT_RELATED_PRODUCT_CATEGORY('','',(#1693));
#1693=PRODUCT('Ghast Body','Ghast Body','Ghast Body',(#1695));
#1694=PRODUCT_CATEGORY('','');
#1695=PRODUCT_CONTEXT('',#1697,'mechanical');
#1696=APPLICATION_PROTOCOL_DEFINITION('international standard',
'ap242_managed_model_based_3d_engineering',2011,#1697);
#1697=APPLICATION_CONTEXT('managed model based 3d engineering');
ENDSEC;
END-ISO-10303-21;
