ISO-10303-21;
HEADER;
/* Generated by software containing ST-Developer
 * from STEP Tools, Inc. (www.steptools.com) 
 */
/* OPTION: using custom renumber hook */

FILE_DESCRIPTION(
/* description */ ('STEP AP242',
'CAx-IF Rec.Pracs.---Representation and Presentation of Product Manufa
cturing Information (PMI)---4.0---2014-10-13',
'CAx-IF Rec.Pracs.---3D Tessellated Geometry---0.4---2014-09-14','2;1'),

/* implementation_level */ '2;1');

FILE_NAME(
/* name */ '688939eaf7931346cbd3e932',
/* time_stamp */ '2025-07-29T21:15:23Z',
/* author */ (''),
/* organization */ (''),
/* preprocessor_version */ 'ST-DEVELOPER v20',
/* originating_system */ 'ONSHAPE BY PTC INC, 1.201',
/* authorisation */ '  ');

FILE_SCHEMA (('AP242_MANAGED_MODEL_BASED_3D_ENGINEERING_MIM_LF { 1 0 10303 442 1 1 4 }'));
ENDSEC;

DATA;
#10=SHAPE_REPRESENTATION_RELATIONSHIP('','',#237,#11);
#11=ADVANCED_BREP_SHAPE_REPRESENTATION('',(#235),#379);
#12=CYLINDRICAL_SURFACE('',#253,0.005);
#13=CYLINDRICAL_SURFACE('',#254,0.005);
#14=CIRCLE('',#248,0.005);
#15=CIRCLE('',#249,0.005);
#16=CIRCLE('',#251,0.005);
#17=CIRCLE('',#252,0.005);
#18=ORIENTED_EDGE('',*,*,#78,.F.);
#19=ORIENTED_EDGE('',*,*,#79,.T.);
#20=ORIENTED_EDGE('',*,*,#80,.T.);
#21=ORIENTED_EDGE('',*,*,#81,.T.);
#22=ORIENTED_EDGE('',*,*,#82,.F.);
#23=ORIENTED_EDGE('',*,*,#83,.T.);
#24=ORIENTED_EDGE('',*,*,#84,.T.);
#25=ORIENTED_EDGE('',*,*,#85,.F.);
#26=ORIENTED_EDGE('',*,*,#86,.T.);
#27=ORIENTED_EDGE('',*,*,#87,.F.);
#28=ORIENTED_EDGE('',*,*,#88,.F.);
#29=ORIENTED_EDGE('',*,*,#85,.T.);
#30=ORIENTED_EDGE('',*,*,#89,.T.);
#31=ORIENTED_EDGE('',*,*,#90,.F.);
#32=ORIENTED_EDGE('',*,*,#91,.F.);
#33=ORIENTED_EDGE('',*,*,#87,.T.);
#34=ORIENTED_EDGE('',*,*,#92,.T.);
#35=ORIENTED_EDGE('',*,*,#93,.F.);
#36=ORIENTED_EDGE('',*,*,#94,.F.);
#37=ORIENTED_EDGE('',*,*,#90,.T.);
#38=ORIENTED_EDGE('',*,*,#95,.T.);
#39=ORIENTED_EDGE('',*,*,#96,.F.);
#40=ORIENTED_EDGE('',*,*,#97,.F.);
#41=ORIENTED_EDGE('',*,*,#93,.T.);
#42=ORIENTED_EDGE('',*,*,#98,.T.);
#43=ORIENTED_EDGE('',*,*,#99,.F.);
#44=ORIENTED_EDGE('',*,*,#100,.F.);
#45=ORIENTED_EDGE('',*,*,#96,.T.);
#46=ORIENTED_EDGE('',*,*,#101,.T.);
#47=ORIENTED_EDGE('',*,*,#102,.T.);
#48=ORIENTED_EDGE('',*,*,#103,.F.);
#49=ORIENTED_EDGE('',*,*,#99,.T.);
#50=ORIENTED_EDGE('',*,*,#103,.T.);
#51=ORIENTED_EDGE('',*,*,#104,.T.);
#52=ORIENTED_EDGE('',*,*,#78,.T.);
#53=ORIENTED_EDGE('',*,*,#105,.T.);
#54=ORIENTED_EDGE('',*,*,#82,.T.);
#55=ORIENTED_EDGE('',*,*,#88,.T.);
#56=ORIENTED_EDGE('',*,*,#91,.T.);
#57=ORIENTED_EDGE('',*,*,#94,.T.);
#58=ORIENTED_EDGE('',*,*,#97,.T.);
#59=ORIENTED_EDGE('',*,*,#100,.T.);
#60=ORIENTED_EDGE('',*,*,#80,.F.);
#61=ORIENTED_EDGE('',*,*,#106,.T.);
#62=ORIENTED_EDGE('',*,*,#101,.F.);
#63=ORIENTED_EDGE('',*,*,#98,.F.);
#64=ORIENTED_EDGE('',*,*,#95,.F.);
#65=ORIENTED_EDGE('',*,*,#92,.F.);
#66=ORIENTED_EDGE('',*,*,#89,.F.);
#67=ORIENTED_EDGE('',*,*,#86,.F.);
#68=ORIENTED_EDGE('',*,*,#84,.F.);
#69=ORIENTED_EDGE('',*,*,#107,.T.);
#70=ORIENTED_EDGE('',*,*,#104,.F.);
#71=ORIENTED_EDGE('',*,*,#102,.F.);
#72=ORIENTED_EDGE('',*,*,#106,.F.);
#73=ORIENTED_EDGE('',*,*,#79,.F.);
#74=ORIENTED_EDGE('',*,*,#105,.F.);
#75=ORIENTED_EDGE('',*,*,#81,.F.);
#76=ORIENTED_EDGE('',*,*,#107,.F.);
#77=ORIENTED_EDGE('',*,*,#83,.F.);
#78=EDGE_CURVE('',#108,#109,#128,.T.);
#79=EDGE_CURVE('',#108,#110,#129,.T.);
#80=EDGE_CURVE('',#110,#111,#130,.T.);
#81=EDGE_CURVE('',#111,#109,#131,.F.);
#82=EDGE_CURVE('',#112,#113,#132,.T.);
#83=EDGE_CURVE('',#112,#114,#133,.T.);
#84=EDGE_CURVE('',#114,#115,#134,.T.);
#85=EDGE_CURVE('',#113,#115,#135,.T.);
#86=EDGE_CURVE('',#115,#116,#136,.T.);
#87=EDGE_CURVE('',#117,#116,#137,.T.);
#88=EDGE_CURVE('',#113,#117,#138,.T.);
#89=EDGE_CURVE('',#116,#118,#139,.T.);
#90=EDGE_CURVE('',#119,#118,#140,.T.);
#91=EDGE_CURVE('',#117,#119,#141,.T.);
#92=EDGE_CURVE('',#118,#120,#142,.T.);
#93=EDGE_CURVE('',#121,#120,#143,.T.);
#94=EDGE_CURVE('',#119,#121,#144,.T.);
#95=EDGE_CURVE('',#120,#122,#145,.T.);
#96=EDGE_CURVE('',#123,#122,#146,.T.);
#97=EDGE_CURVE('',#121,#123,#147,.T.);
#98=EDGE_CURVE('',#122,#124,#148,.T.);
#99=EDGE_CURVE('',#125,#124,#149,.T.);
#100=EDGE_CURVE('',#123,#125,#150,.T.);
#101=EDGE_CURVE('',#124,#126,#151,.T.);
#102=EDGE_CURVE('',#126,#127,#152,.F.);
#103=EDGE_CURVE('',#125,#127,#153,.T.);
#104=EDGE_CURVE('',#127,#108,#14,.F.);
#105=EDGE_CURVE('',#109,#112,#15,.F.);
#106=EDGE_CURVE('',#110,#126,#16,.T.);
#107=EDGE_CURVE('',#114,#111,#17,.T.);
#108=VERTEX_POINT('',#318);
#109=VERTEX_POINT('',#319);
#110=VERTEX_POINT('',#321);
#111=VERTEX_POINT('',#323);
#112=VERTEX_POINT('',#327);
#113=VERTEX_POINT('',#328);
#114=VERTEX_POINT('',#330);
#115=VERTEX_POINT('',#332);
#116=VERTEX_POINT('',#336);
#117=VERTEX_POINT('',#338);
#118=VERTEX_POINT('',#342);
#119=VERTEX_POINT('',#344);
#120=VERTEX_POINT('',#348);
#121=VERTEX_POINT('',#350);
#122=VERTEX_POINT('',#354);
#123=VERTEX_POINT('',#356);
#124=VERTEX_POINT('',#360);
#125=VERTEX_POINT('',#362);
#126=VERTEX_POINT('',#366);
#127=VERTEX_POINT('',#368);
#128=LINE('',#317,#154);
#129=LINE('',#320,#155);
#130=LINE('',#322,#156);
#131=LINE('',#324,#157);
#132=LINE('',#326,#158);
#133=LINE('',#329,#159);
#134=LINE('',#331,#160);
#135=LINE('',#333,#161);
#136=LINE('',#335,#162);
#137=LINE('',#337,#163);
#138=LINE('',#339,#164);
#139=LINE('',#341,#165);
#140=LINE('',#343,#166);
#141=LINE('',#345,#167);
#142=LINE('',#347,#168);
#143=LINE('',#349,#169);
#144=LINE('',#351,#170);
#145=LINE('',#353,#171);
#146=LINE('',#355,#172);
#147=LINE('',#357,#173);
#148=LINE('',#359,#174);
#149=LINE('',#361,#175);
#150=LINE('',#363,#176);
#151=LINE('',#365,#177);
#152=LINE('',#367,#178);
#153=LINE('',#369,#179);
#154=VECTOR('',#259,1.);
#155=VECTOR('',#260,1.);
#156=VECTOR('',#261,1.);
#157=VECTOR('',#262,1.);
#158=VECTOR('',#265,1.);
#159=VECTOR('',#266,1.);
#160=VECTOR('',#267,1.);
#161=VECTOR('',#268,1.);
#162=VECTOR('',#271,1.);
#163=VECTOR('',#272,1.);
#164=VECTOR('',#273,1.);
#165=VECTOR('',#276,1.);
#166=VECTOR('',#277,1.);
#167=VECTOR('',#278,1.);
#168=VECTOR('',#281,1.);
#169=VECTOR('',#282,1.);
#170=VECTOR('',#283,1.);
#171=VECTOR('',#286,1.);
#172=VECTOR('',#287,1.);
#173=VECTOR('',#288,1.);
#174=VECTOR('',#291,1.);
#175=VECTOR('',#292,1.);
#176=VECTOR('',#293,1.);
#177=VECTOR('',#296,1.);
#178=VECTOR('',#297,1.);
#179=VECTOR('',#298,1.);
#180=EDGE_LOOP('',(#18,#19,#20,#21));
#181=EDGE_LOOP('',(#22,#23,#24,#25));
#182=EDGE_LOOP('',(#26,#27,#28,#29));
#183=EDGE_LOOP('',(#30,#31,#32,#33));
#184=EDGE_LOOP('',(#34,#35,#36,#37));
#185=EDGE_LOOP('',(#38,#39,#40,#41));
#186=EDGE_LOOP('',(#42,#43,#44,#45));
#187=EDGE_LOOP('',(#46,#47,#48,#49));
#188=EDGE_LOOP('',(#50,#51,#52,#53,#54,#55,#56,#57,#58,#59));
#189=EDGE_LOOP('',(#60,#61,#62,#63,#64,#65,#66,#67,#68,#69));
#190=EDGE_LOOP('',(#70,#71,#72,#73));
#191=EDGE_LOOP('',(#74,#75,#76,#77));
#192=FACE_BOUND('',#180,.T.);
#193=FACE_BOUND('',#181,.T.);
#194=FACE_BOUND('',#182,.T.);
#195=FACE_BOUND('',#183,.T.);
#196=FACE_BOUND('',#184,.T.);
#197=FACE_BOUND('',#185,.T.);
#198=FACE_BOUND('',#186,.T.);
#199=FACE_BOUND('',#187,.T.);
#200=FACE_BOUND('',#188,.T.);
#201=FACE_BOUND('',#189,.T.);
#202=FACE_BOUND('',#190,.T.);
#203=FACE_BOUND('',#191,.T.);
#204=PLANE('',#239);
#205=PLANE('',#240);
#206=PLANE('',#241);
#207=PLANE('',#242);
#208=PLANE('',#243);
#209=PLANE('',#244);
#210=PLANE('',#245);
#211=PLANE('',#246);
#212=PLANE('',#247);
#213=PLANE('',#250);
#214=ADVANCED_FACE('',(#192),#204,.F.);
#215=ADVANCED_FACE('',(#193),#205,.F.);
#216=ADVANCED_FACE('',(#194),#206,.F.);
#217=ADVANCED_FACE('',(#195),#207,.F.);
#218=ADVANCED_FACE('',(#196),#208,.F.);
#219=ADVANCED_FACE('',(#197),#209,.F.);
#220=ADVANCED_FACE('',(#198),#210,.F.);
#221=ADVANCED_FACE('',(#199),#211,.F.);
#222=ADVANCED_FACE('',(#200),#212,.T.);
#223=ADVANCED_FACE('',(#201),#213,.F.);
#224=ADVANCED_FACE('',(#202),#12,.F.);
#225=ADVANCED_FACE('',(#203),#13,.F.);
#226=CLOSED_SHELL('',(#214,#215,#216,#217,#218,#219,#220,#221,#222,#223,
#224,#225));
#227=STYLED_ITEM('',(#228),#235);
#228=PRESENTATION_STYLE_ASSIGNMENT((#229));
#229=SURFACE_STYLE_USAGE(.BOTH.,#230);
#230=SURFACE_SIDE_STYLE('',(#231));
#231=SURFACE_STYLE_FILL_AREA(#232);
#232=FILL_AREA_STYLE('',(#233));
#233=FILL_AREA_STYLE_COLOUR('',#234);
#234=COLOUR_RGB('',0.647058823529412,0.647058823529412,0.647058823529412);
#235=MANIFOLD_SOLID_BREP('Tentacle',#226);
#236=SHAPE_DEFINITION_REPRESENTATION(#384,#237);
#237=SHAPE_REPRESENTATION('Tentacle',(#238),#379);
#238=AXIS2_PLACEMENT_3D('',#315,#255,#256);
#239=AXIS2_PLACEMENT_3D('',#316,#257,#258);
#240=AXIS2_PLACEMENT_3D('',#325,#263,#264);
#241=AXIS2_PLACEMENT_3D('',#334,#269,#270);
#242=AXIS2_PLACEMENT_3D('',#340,#274,#275);
#243=AXIS2_PLACEMENT_3D('',#346,#279,#280);
#244=AXIS2_PLACEMENT_3D('',#352,#284,#285);
#245=AXIS2_PLACEMENT_3D('',#358,#289,#290);
#246=AXIS2_PLACEMENT_3D('',#364,#294,#295);
#247=AXIS2_PLACEMENT_3D('',#370,#299,#300);
#248=AXIS2_PLACEMENT_3D('',#371,#301,#302);
#249=AXIS2_PLACEMENT_3D('',#372,#303,#304);
#250=AXIS2_PLACEMENT_3D('',#373,#305,#306);
#251=AXIS2_PLACEMENT_3D('',#374,#307,#308);
#252=AXIS2_PLACEMENT_3D('',#375,#309,#310);
#253=AXIS2_PLACEMENT_3D('',#376,#311,#312);
#254=AXIS2_PLACEMENT_3D('',#377,#313,#314);
#255=DIRECTION('',(0.,0.,1.));
#256=DIRECTION('',(1.,0.,0.));
#257=DIRECTION('',(-1.,0.,0.));
#258=DIRECTION('',(0.,0.,1.));
#259=DIRECTION('',(0.,1.,0.));
#260=DIRECTION('',(0.,0.,-1.));
#261=DIRECTION('',(0.,1.,0.));
#262=DIRECTION('',(0.,0.,-1.));
#263=DIRECTION('',(-1.11022302462516E-15,1.,0.));
#264=DIRECTION('',(-1.,-1.11022302462516E-15,0.));
#265=DIRECTION('',(1.,1.11022302462516E-15,0.));
#266=DIRECTION('',(0.,0.,-1.));
#267=DIRECTION('',(1.,1.11022302462516E-15,0.));
#268=DIRECTION('',(0.,0.,-1.));
#269=DIRECTION('',(-1.,0.,0.));
#270=DIRECTION('',(0.,0.,1.));
#271=DIRECTION('',(0.,1.,0.));
#272=DIRECTION('',(0.,0.,-1.));
#273=DIRECTION('',(0.,1.,0.));
#274=DIRECTION('',(5.55111512312578E-16,-1.,0.));
#275=DIRECTION('',(1.,5.55111512312578E-16,0.));
#276=DIRECTION('',(-1.,-5.55111512312578E-16,0.));
#277=DIRECTION('',(0.,0.,-1.));
#278=DIRECTION('',(-1.,-5.55111512312578E-16,0.));
#279=DIRECTION('',(1.,0.,0.));
#280=DIRECTION('',(0.,0.,-1.));
#281=DIRECTION('',(0.,-1.,0.));
#282=DIRECTION('',(0.,0.,-1.));
#283=DIRECTION('',(0.,-1.,0.));
#284=DIRECTION('',(-2.77555756156289E-16,1.,0.));
#285=DIRECTION('',(-1.,-2.77555756156289E-16,0.));
#286=DIRECTION('',(1.,2.77555756156289E-16,0.));
#287=DIRECTION('',(0.,0.,-1.));
#288=DIRECTION('',(1.,2.77555756156289E-16,0.));
#289=DIRECTION('',(-1.,0.,0.));
#290=DIRECTION('',(0.,0.,1.));
#291=DIRECTION('',(0.,1.,0.));
#292=DIRECTION('',(0.,0.,-1.));
#293=DIRECTION('',(0.,1.,0.));
#294=DIRECTION('',(1.2335811384724E-16,-1.,0.));
#295=DIRECTION('',(1.,1.2335811384724E-16,0.));
#296=DIRECTION('',(-1.,-1.2335811384724E-16,0.));
#297=DIRECTION('',(0.,0.,-1.));
#298=DIRECTION('',(-1.,-1.2335811384724E-16,0.));
#299=DIRECTION('',(0.,0.,1.));
#300=DIRECTION('',(1.,0.,0.));
#301=DIRECTION('',(0.,0.,1.));
#302=DIRECTION('',(1.,0.,0.));
#303=DIRECTION('',(0.,0.,1.));
#304=DIRECTION('',(1.,0.,0.));
#305=DIRECTION('',(0.,0.,1.));
#306=DIRECTION('',(1.,0.,0.));
#307=DIRECTION('',(0.,0.,1.));
#308=DIRECTION('',(1.,0.,0.));
#309=DIRECTION('',(0.,0.,1.));
#310=DIRECTION('',(1.,0.,0.));
#311=DIRECTION('',(0.,0.,1.));
#312=DIRECTION('',(1.,0.,0.));
#313=DIRECTION('',(0.,0.,1.));
#314=DIRECTION('',(1.,0.,0.));
#315=CARTESIAN_POINT('',(0.,0.,0.));
#316=CARTESIAN_POINT('',(0.420504921674728,0.159771278852575,0.05));
#317=CARTESIAN_POINT('',(0.420504921674728,0.159771278852575,0.05));
#318=CARTESIAN_POINT('',(0.420504921674728,0.156771278852575,0.05));
#319=CARTESIAN_POINT('',(0.420504921674728,0.162771278852575,0.05));
#320=CARTESIAN_POINT('',(0.420504921674728,0.156771278852575,0.));
#321=CARTESIAN_POINT('',(0.420504921674728,0.156771278852575,0.));
#322=CARTESIAN_POINT('',(0.420504921674728,0.159771278852575,0.));
#323=CARTESIAN_POINT('',(0.420504921674728,0.162771278852575,0.));
#324=CARTESIAN_POINT('',(0.420504921674728,0.162771278852575,0.05));
#325=CARTESIAN_POINT('',(0.433004921674728,0.167771278852575,0.05));
#326=CARTESIAN_POINT('',(0.433004921674728,0.167771278852575,0.05));
#327=CARTESIAN_POINT('',(0.425504921674728,0.167771278852575,0.05));
#328=CARTESIAN_POINT('',(0.445504921674728,0.167771278852575,0.05));
#329=CARTESIAN_POINT('',(0.425504921674728,0.167771278852575,0.));
#330=CARTESIAN_POINT('',(0.425504921674728,0.167771278852575,0.));
#331=CARTESIAN_POINT('',(0.433004921674728,0.167771278852575,0.));
#332=CARTESIAN_POINT('',(0.445504921674728,0.167771278852575,0.));
#333=CARTESIAN_POINT('',(0.445504921674728,0.167771278852575,0.05));
#334=CARTESIAN_POINT('',(0.445504921674728,0.172771278852575,0.05));
#335=CARTESIAN_POINT('',(0.445504921674728,0.172771278852575,0.));
#336=CARTESIAN_POINT('',(0.445504921674728,0.177771278852575,0.));
#337=CARTESIAN_POINT('',(0.445504921674728,0.177771278852575,0.05));
#338=CARTESIAN_POINT('',(0.445504921674728,0.177771278852575,0.05));
#339=CARTESIAN_POINT('',(0.445504921674728,0.172771278852575,0.05));
#340=CARTESIAN_POINT('',(0.420504921674728,0.177771278852575,0.05));
#341=CARTESIAN_POINT('',(0.420504921674728,0.177771278852575,0.));
#342=CARTESIAN_POINT('',(0.395504921674729,0.177771278852575,0.));
#343=CARTESIAN_POINT('',(0.395504921674729,0.177771278852575,0.05));
#344=CARTESIAN_POINT('',(0.395504921674729,0.177771278852575,0.05));
#345=CARTESIAN_POINT('',(0.420504921674728,0.177771278852575,0.05));
#346=CARTESIAN_POINT('',(0.395504921674729,0.139771278852575,0.05));
#347=CARTESIAN_POINT('',(0.395504921674729,0.139771278852575,0.));
#348=CARTESIAN_POINT('',(0.395504921674729,0.101771278852575,0.));
#349=CARTESIAN_POINT('',(0.395504921674729,0.101771278852575,0.05));
#350=CARTESIAN_POINT('',(0.395504921674729,0.101771278852575,0.05));
#351=CARTESIAN_POINT('',(0.395504921674729,0.139771278852575,0.05));
#352=CARTESIAN_POINT('',(0.520504921674728,0.101771278852575,0.05));
#353=CARTESIAN_POINT('',(0.520504921674728,0.101771278852575,0.));
#354=CARTESIAN_POINT('',(0.645504921674728,0.101771278852575,0.));
#355=CARTESIAN_POINT('',(0.645504921674728,0.101771278852575,0.05));
#356=CARTESIAN_POINT('',(0.645504921674728,0.101771278852575,0.05));
#357=CARTESIAN_POINT('',(0.520504921674728,0.101771278852575,0.05));
#358=CARTESIAN_POINT('',(0.645504921674728,0.126771278852575,0.05));
#359=CARTESIAN_POINT('',(0.645504921674728,0.126771278852575,0.));
#360=CARTESIAN_POINT('',(0.645504921674728,0.151771278852575,0.));
#361=CARTESIAN_POINT('',(0.645504921674728,0.151771278852575,0.05));
#362=CARTESIAN_POINT('',(0.645504921674728,0.151771278852575,0.05));
#363=CARTESIAN_POINT('',(0.645504921674728,0.126771278852575,0.05));
#364=CARTESIAN_POINT('',(0.533004921674728,0.151771278852575,0.05));
#365=CARTESIAN_POINT('',(0.533004921674728,0.151771278852575,0.));
#366=CARTESIAN_POINT('',(0.425504921674728,0.151771278852575,0.));
#367=CARTESIAN_POINT('',(0.425504921674728,0.151771278852575,0.05));
#368=CARTESIAN_POINT('',(0.425504921674728,0.151771278852575,0.05));
#369=CARTESIAN_POINT('',(0.533004921674728,0.151771278852575,0.05));
#370=CARTESIAN_POINT('',(0.263584299509488,0.139573239535093,0.05));
#371=CARTESIAN_POINT('',(0.425504921674728,0.156771278852575,0.05));
#372=CARTESIAN_POINT('',(0.425504921674728,0.162771278852575,0.05));
#373=CARTESIAN_POINT('',(0.263584299509488,0.139573239535093,0.));
#374=CARTESIAN_POINT('',(0.425504921674728,0.156771278852575,0.));
#375=CARTESIAN_POINT('',(0.425504921674728,0.162771278852575,0.));
#376=CARTESIAN_POINT('',(0.425504921674728,0.156771278852575,0.05));
#377=CARTESIAN_POINT('',(0.425504921674728,0.162771278852575,0.05));
#378=MECHANICAL_DESIGN_GEOMETRIC_PRESENTATION_REPRESENTATION('',(#227),
#379);
#379=(
GEOMETRIC_REPRESENTATION_CONTEXT(3)
GLOBAL_UNCERTAINTY_ASSIGNED_CONTEXT((#380))
GLOBAL_UNIT_ASSIGNED_CONTEXT((#383,#382,#381))
REPRESENTATION_CONTEXT('Tentacle','TOP_LEVEL_ASSEMBLY_PART')
);
#380=UNCERTAINTY_MEASURE_WITH_UNIT(LENGTH_MEASURE(1.E-8),#383,
'DISTANCE_ACCURACY_VALUE','Maximum Tolerance applied to model');
#381=(
NAMED_UNIT(*)
SI_UNIT($,.STERADIAN.)
SOLID_ANGLE_UNIT()
);
#382=(
NAMED_UNIT(*)
PLANE_ANGLE_UNIT()
SI_UNIT($,.RADIAN.)
);
#383=(
LENGTH_UNIT()
NAMED_UNIT(*)
SI_UNIT($,.METRE.)
);
#384=PRODUCT_DEFINITION_SHAPE('','',#385);
#385=PRODUCT_DEFINITION('','',#387,#386);
#386=PRODUCT_DEFINITION_CONTEXT('',#393,'design');
#387=PRODUCT_DEFINITION_FORMATION_WITH_SPECIFIED_SOURCE('','',#389,
 .NOT_KNOWN.);
#388=PRODUCT_RELATED_PRODUCT_CATEGORY('','',(#389));
#389=PRODUCT('Tentacle','Tentacle','Tentacle',(#391));
#390=PRODUCT_CATEGORY('','');
#391=PRODUCT_CONTEXT('',#393,'mechanical');
#392=APPLICATION_PROTOCOL_DEFINITION('international standard',
'ap242_managed_model_based_3d_engineering',2011,#393);
#393=APPLICATION_CONTEXT('managed model based 3d engineering');
ENDSEC;
END-ISO-10303-21;
